<svg version="1.1" xmlns="http://www.w3.org/2000/svg" xmlns:xlink="http://www.w3.org/1999/xlink" width="148.1706" height="144.17384" viewBox="0,0,148.1706,144.17384"><g transform="translate(-165.9147,-107.91308)"><g data-paper-data="{&quot;isPaintingLayer&quot;:true}" fill-rule="nonzero" stroke="#000000" stroke-width="6" stroke-linecap="butt" stroke-linejoin="miter" stroke-miterlimit="10" stroke-dasharray="" stroke-dashoffset="0" style="mix-blend-mode: normal"><path d="M311.0853,180c0,38.15565 -31.82597,69.08692 -71.0853,69.08692c-39.25933,0 -71.0853,-30.93127 -71.0853,-69.08692c0,-38.15565 31.82597,-69.08692 71.0853,-69.08692c39.25933,0 71.0853,30.93127 71.0853,69.08692z" fill="#66ebff"/><path d="M187.5679,171.75554c0,-12.6065 10.21959,-22.82609 22.82609,-22.82609c12.6065,0 22.82609,10.21959 22.82609,22.82609c0,12.6065 -10.21959,22.82609 -22.82609,22.82609c-12.6065,0 -22.82609,-10.21959 -22.82609,-22.82609z" fill="#000000"/><path d="M244.74182,170.66858c0,-12.12625 9.83027,-21.95652 21.95652,-21.95652c12.12625,0 21.95652,9.83027 21.95652,21.95652c0,12.12625 -9.83027,21.95652 -21.95652,21.95652c-12.12625,0 -21.95652,-9.83027 -21.95652,-21.95652z" fill="#000000"/></g></g></svg>