<svg version="1.1" xmlns="http://www.w3.org/2000/svg" xmlns:xlink="http://www.w3.org/1999/xlink" width="550.54547" height="425" viewBox="0,0,550.54547,425"><g transform="translate(36.04546,21.5)"><g data-paper-data="{&quot;isPaintingLayer&quot;:true}" fill-rule="nonzero" stroke-linecap="butt" stroke-linejoin="miter" stroke-miterlimit="10" stroke-dasharray="" stroke-dashoffset="0" style="mix-blend-mode: normal"><path d="M150.07142,-12.00004c0,0 -1.00288,44.51456 -1.14781,55.96694c-0.03386,2.67577 -0.06266,4.95143 -0.06266,4.95143l-166.05976,-0.216l-0.01548,-60.70237z" data-paper-data="{&quot;index&quot;:null}" fill="#a5a5a5" stroke="none" stroke-width="0"/><path d="M480.50002,-21.5v197h-244v-197z" data-paper-data="{&quot;index&quot;:null}" fill="#a5a5a5" stroke="none" stroke-width="0"/><path d="M-36.04546,398.40909v-363h185v363z" fill="#a5a5a5" stroke="none" stroke-width="0"/><path d="M133.5,403.5v-67h357v67z" fill="#a5a5a5" stroke="none" stroke-width="0"/><path d="M438.50001,350.5v-198h76v198z" fill="#a5a5a5" stroke="none" stroke-width="0"/><path d="M236.67027,303.14193v-145.33864h34.67742v145.33864z" fill="#4d4d4d" stroke="#000000" stroke-width="2.5"/><g data-paper-data="{&quot;index&quot;:null}" stroke="#000000"><path d="M326.264,328.2242c-3.6936,-0.79667 -5.97908,-4.17082 -5.10477,-7.53638c0.87432,-3.36556 4.57735,-5.44806 8.27095,-4.6514c3.6936,0.79666 5.97908,4.17082 5.10477,7.53638c-0.87431,3.36556 -4.57735,5.44806 -8.27095,4.6514z" fill="#9ad3ff" stroke-width="2.5"/><path d="M330.90282,325.87536l-6.64946,-0.60986l1.21236,-4.67181l-11.84778,-2.36353l1.02046,-4.9916l18.21068,3.09096l-1.02046,4.9916z" fill="#404040" stroke-width="2"/><path d="M321.56939,321.10004c0.83784,-3.22512 2.63438,-2.53645 5.05098,-2.01522c2.41658,0.52123 4.53812,0.67767 3.70028,3.90277c-0.83784,3.22512 -3.47606,5.41703 -5.89266,4.8958c-2.41658,-0.52123 -3.69644,-3.55824 -2.8586,-6.78334z" fill="#9ad3ff" stroke-width="2.5"/></g><path d="M342.94845,329.39358c-7.66296,0 -13.87502,-5.66035 -13.87502,-12.64274c0,-6.98239 6.21206,-12.64274 13.87502,-12.64274c7.66296,0 13.87502,5.66035 13.87502,12.64274c0,6.98239 -6.21206,12.64274 -13.87502,12.64274z" data-paper-data="{&quot;index&quot;:null}" fill="#9ad3ff" stroke="#000000" stroke-width="2.5"/><path d="M343.02021,310.1263c0.8105,0 1.46755,2.44682 1.46755,5.46512c0,3.0183 -0.65704,5.46512 -1.46755,5.46512c-0.8105,0 -1.46755,-2.44682 -1.46755,-5.46512c0,-3.0183 0.65704,-5.46512 1.46755,-5.46512z" data-paper-data="{&quot;index&quot;:null}" fill="#000000" stroke="#000000" stroke-width="2.5"/><path d="M336.51196,310.35886c0.66955,0 1.21232,2.16049 1.21232,4.82558c0,2.6651 -0.54277,4.82558 -1.21232,4.82558c-0.66955,0 -1.21232,-2.16049 -1.21232,-4.82558c0,-2.6651 0.54277,-4.82558 1.21232,-4.82558z" data-paper-data="{&quot;index&quot;:null}" fill="#000000" stroke="#000000" stroke-width="2.5"/><path d="M343.40558,329.15539c-3.79566,0 -6.87267,-2.80372 -6.87267,-6.26229c0,-3.45856 3.077,-6.26229 6.87267,-6.26229c3.79568,0 6.87267,2.80372 6.87267,6.26229c0,3.45857 -3.077,6.26229 -6.87267,6.26229z" data-paper-data="{&quot;index&quot;:null}" fill="#9ad3ff" stroke="#000000" stroke-width="2.5"/></g></g></svg>