<svg version="1.1" xmlns="http://www.w3.org/2000/svg" xmlns:xlink="http://www.w3.org/1999/xlink" width="110.49433" height="72.34968" viewBox="0,0,110.49433,72.34968"><g transform="translate(-195.64307,-144.38854)"><g data-paper-data="{&quot;isPaintingLayer&quot;:true}" fill-rule="nonzero" stroke-linejoin="miter" stroke-miterlimit="10" stroke-dasharray="" stroke-dashoffset="0" style="mix-blend-mode: normal"><g stroke="#000000" stroke-width="5"><path d="M269.74939,191.6483c0,-5.53251 -0.34002,-8.88814 4.32927,-11.14265c0.89242,-0.43089 -4.25872,-20.00046 9.50438,-19.34414c1.02101,0.04869 -0.9993,16.53942 0.11371,16.53942c7.70292,0 13.94737,6.24445 13.94737,13.94737c0,7.70292 -6.24445,13.94736 -13.94737,13.94736c-7.70292,0 -13.94736,-6.24444 -13.94736,-13.94736z" fill="#9ad3ff" stroke-linecap="butt"/><path d="M282.37827,182.52399c0,0 -4.13027,4.88186 -4.244,7.49338c-0.57966,13.31097 2.99755,10.13499 2.99755,10.13499" fill="none" stroke-linecap="round"/></g><path d="M211.84211,180c0,-15.55117 12.60672,-28.15789 28.15789,-28.15789c15.55118,0 28.15789,12.60672 28.15789,28.15789c0,15.55118 -12.60672,28.15789 -28.15789,28.15789c-15.55117,0 -28.15789,-12.60672 -28.15789,-28.15789z" fill="#9ad3ff" stroke="#000000" stroke-width="5" stroke-linecap="butt"/><path d="M239.74662,175.28147c0,4.50548 -1.06038,8.1579 -2.36843,8.1579c-1.30804,0 -2.36842,-3.65242 -2.36842,-8.1579c0,-4.50548 1.06038,-8.15789 2.36842,-8.15789c1.30804,0 2.36843,3.65241 2.36843,8.15789z" fill="#000000" stroke="#000000" stroke-width="5" stroke-linecap="butt"/><path d="M251.75104,174.67007c0,4.50548 -1.06038,8.1579 -2.36843,8.1579c-1.30804,0 -2.36842,-3.65242 -2.36842,-8.1579c0,-4.50548 1.06038,-8.15789 2.36842,-8.15789c1.30805,0 2.36843,3.65241 2.36843,8.15789z" fill="#000000" stroke="#000000" stroke-width="5" stroke-linecap="butt"/><path d="M232.16416,213.50717c-8.07543,-4.01966 0,-24.3948 0,-24.3948l22.4361,0.17807c0,0 -10.90238,29.95781 -22.4361,24.21674z" fill="#ffffff" stroke="#000000" stroke-width="5" stroke-linecap="butt"/><path d="M200.26316,193.42107c0,-7.70292 6.24444,-13.94737 13.94736,-13.94737c7.70292,0 13.94737,6.24445 13.94737,13.94737c0,7.70292 -6.24445,13.94736 -13.94737,13.94736c-7.70292,0 -13.94736,-6.24444 -13.94736,-13.94736z" fill="#9ad3ff" stroke="#000000" stroke-width="5" stroke-linecap="butt"/><path d="M195.64307,214.78328v-70.39473h110.49433v70.39473z" fill="none" stroke="none" stroke-width="0" stroke-linecap="butt"/><path d="M254.42219,197.12526c0,4.13037 -4.34485,7.4787 -9.7045,7.4787c-5.35965,0 -9.7045,-3.34833 -9.7045,-7.4787c0,-4.13037 4.34485,-7.4787 9.7045,-7.4787c5.35965,0 9.7045,3.34833 9.7045,7.4787z" fill="none" stroke="none" stroke-width="0" stroke-linecap="butt"/></g></g></svg>