<svg version="1.1" xmlns="http://www.w3.org/2000/svg" xmlns:xlink="http://www.w3.org/1999/xlink" width="867.14286" height="501.78574" viewBox="0,0,867.14286,501.78574"><g transform="translate(151.42857,77.14286)"><g data-paper-data="{&quot;isPaintingLayer&quot;:true}" fill-rule="nonzero" stroke-linejoin="miter" stroke-miterlimit="10" stroke-dasharray="" stroke-dashoffset="0" style="mix-blend-mode: normal"><path d="M-38.57143,358.85715v-426h544v426z" fill="#dadada" stroke="none" stroke-width="NaN" stroke-linecap="butt"/><path d="M-23.57142,368.85715v-445h39v445z" fill="#cacaca" stroke="none" stroke-width="0" stroke-linecap="butt"/><path d="M58.42857,373.85715v-445h39v445z" fill="#cacaca" stroke="none" stroke-width="0" stroke-linecap="butt"/><path d="M140.42859,367.85715v-445h39v445z" fill="#cacaca" stroke="none" stroke-width="0" stroke-linecap="butt"/><path d="M220.42858,369.85715v-445h39v445z" fill="#cacaca" stroke="none" stroke-width="0" stroke-linecap="butt"/><path d="M302.42859,373.85715v-445h39v445z" fill="#cacaca" stroke="none" stroke-width="0" stroke-linecap="butt"/><path d="M385.42859,372.85715v-445h39v445z" fill="#cacaca" stroke="none" stroke-width="0" stroke-linecap="butt"/><path d="M464.42859,372.85715v-445h39v445z" fill="#cacaca" stroke="none" stroke-width="0" stroke-linecap="butt"/><path d="M-148.92857,422.14289v-183.57143h862.14286v183.57143z" fill="#d8d8d8" stroke="#000000" stroke-width="5" stroke-linecap="butt"/><path d="M276.01664,180.33397c7.77736,22.50171 -5.36711,47.46529 -29.359,55.75771c-23.99189,8.29242 -49.74596,-3.22649 -57.52332,-25.7282c-7.77736,-22.50171 5.36711,-47.46529 29.359,-55.75771c23.99189,-8.29242 49.74596,3.22649 57.52332,25.7282z" fill="#66ebff" stroke="#000000" stroke-width="6" stroke-linecap="butt"/><path d="M182.65297,184.56473c0,38.15565 -31.82597,69.08692 -71.0853,69.08692c-39.25933,0 -71.0853,-30.93127 -71.0853,-69.08692c0,-38.15565 31.82597,-69.08692 71.0853,-69.08692c39.25933,0 71.0853,30.93127 71.0853,69.08692z" fill="#66ebff" stroke="#000000" stroke-width="6" stroke-linecap="butt"/><path d="M96.8994,245.04843c0,23.80787 -20.96169,43.10795 -46.81923,43.10795c-25.85755,0 -46.81923,-19.30008 -46.81923,-43.10795c0,-23.80787 20.96169,-43.10795 46.81923,-43.10795c25.85755,0 46.81923,19.30009 46.81923,43.10795z" fill="#66ebff" stroke="#000000" stroke-width="6" stroke-linecap="butt"/><path d="M124.41442,182.28087c0,12.2981 -4.47353,22.26768 -9.99191,22.26768c-5.51838,0 -9.99191,-9.96958 -9.99191,-22.26768c0,-12.2981 4.47353,-22.26769 9.99191,-22.26769c5.51838,0 9.99191,9.96958 9.99191,22.26769z" fill="#000000" stroke="#000000" stroke-width="6" stroke-linecap="butt"/><path d="M155.81755,180.56797c0,11.3521 -3.57883,20.55478 -7.99353,20.55478c-4.4147,0 -7.99353,-9.20269 -7.99353,-20.55478c0,-11.3521 3.57883,-20.55478 7.99353,-20.55478c4.4147,0 7.99353,9.20269 7.99353,20.55478z" fill="#000000" stroke="#000000" stroke-width="6" stroke-linecap="butt"/><g fill="none" stroke="#fff666" stroke-width="19"><path d="M347.68588,170.66865c5.27344,17.71193 -0.51894,35.06767 -12.93765,38.76514c-12.41871,3.69747 -26.76102,-7.66349 -32.03446,-25.37542c-5.27344,-17.71193 0.51894,-35.06767 12.93765,-38.76514c12.41871,-3.69747 26.76102,7.66349 32.03446,25.37542z" stroke-linecap="butt"/><path d="M355.63813,173.1166l75.61916,5.97796" stroke-linecap="round"/><path d="M384.37053,138.87876l7.29729,33.9444" stroke-linecap="round"/><path d="M422.95793,131.00169l9.15473,44.22651" stroke-linecap="round"/></g></g></g></svg>