<svg version="1.1" xmlns="http://www.w3.org/2000/svg" xmlns:xlink="http://www.w3.org/1999/xlink" width="101.17632" height="70.39473" viewBox="0,0,101.17632,70.39473"><g transform="translate(-195.64307,-144.38856)"><g data-paper-data="{&quot;isPaintingLayer&quot;:true}" fill-rule="nonzero" stroke-linecap="butt" stroke-linejoin="miter" stroke-miterlimit="10" stroke-dasharray="" stroke-dashoffset="0" style="mix-blend-mode: normal"><g stroke="#000000"><path d="M261.46213,193.51937c-6.07537,-4.73549 -7.16155,-13.49942 -2.42606,-19.57479c4.73549,-6.07537 13.49943,-7.16155 19.57479,-2.42605c6.07537,4.73549 7.16154,13.49942 2.42604,19.57479c-4.73549,6.07537 -13.49941,7.16154 -19.57478,2.42605z" fill="#9ad3ff" stroke-width="5"/><path d="M262.60677,186.17059l-8.57331,-7.37433l24.51413,-28.49988l8.57331,7.37433l-15.4573,19.15429l8.43127,6.57511l-9.67426,9.50534z" fill="#404040" stroke-width="4"/><path d="M283.46777,188.16923c-3.09826,3.97489 -10.32942,3.51852 -16.15124,-1.01934c-5.82182,-4.53787 -2.68204,-7.50429 0.41623,-11.47918c3.09827,-3.9749 4.98177,-7.45306 10.80359,-2.91519c5.82181,4.53786 8.02968,11.43882 4.93142,15.41371z" fill="#9ad3ff" stroke-width="5"/></g><path d="M211.84211,180.00003c0,-15.55117 12.60672,-28.15789 28.15789,-28.15789c15.55118,0 28.15789,12.60672 28.15789,28.15789c0,15.55118 -12.60672,28.15789 -28.15789,28.15789c-15.55117,0 -28.15789,-12.60672 -28.15789,-28.15789z" fill="#9ad3ff" stroke="#000000" stroke-width="5"/><path d="M237.08194,173.14473c0,4.50548 -1.06038,8.1579 -2.36843,8.1579c-1.30804,0 -2.36842,-3.65242 -2.36842,-8.1579c0,-2.15079 1.28823,-8.69857 1.28823,-8.69857l2.73933,4.78071c0,0 0.70929,-0.58761 0.70929,3.91787z" fill="#000000" stroke="#000000" stroke-width="5"/><path d="M249.43621,171.64301c0,4.50548 -1.06038,8.1579 -2.36843,8.1579c-1.30804,0 -2.36842,-3.65242 -2.36842,-8.1579c0,-4.50548 0.89363,-4.10222 0.89363,-4.10222l3.13512,-3.95265c0,0 0.7081,6.26019 0.7081,8.05486z" fill="#000000" stroke="#000000" stroke-width="5"/><path d="M231.4519,210.30201c-8.07543,-4.01967 0,-24.3948 0,-24.3948l22.43609,0.17807c0,0 -10.90238,29.95781 -22.43609,24.21674z" fill="#ffffff" stroke="#000000" stroke-width="5"/><path d="M200.26316,193.42108c0,-7.70292 6.24444,-13.94737 13.94736,-13.94737c7.70292,0 13.94737,6.24445 13.94737,13.94737c0,7.70292 -6.24445,13.94736 -13.94737,13.94736c-7.70292,0 -13.94736,-6.24444 -13.94736,-13.94736z" fill="#9ad3ff" stroke="#000000" stroke-width="5"/><path d="M195.64307,214.78329v-70.39473h101.17632v70.39473z" fill="none" stroke="none" stroke-width="0"/></g></g></svg>