<svg version="1.1" xmlns="http://www.w3.org/2000/svg" xmlns:xlink="http://www.w3.org/1999/xlink" width="550.54547" height="425" viewBox="0,0,550.54547,425"><g transform="translate(36.04546,21.5)"><g data-paper-data="{&quot;isPaintingLayer&quot;:true}" fill-rule="nonzero" stroke-linecap="butt" stroke-linejoin="miter" stroke-miterlimit="10" stroke-dasharray="" stroke-dashoffset="0" style="mix-blend-mode: normal"><path d="M150.07142,-12.00004c0,0 -1.00288,44.51456 -1.14781,55.96694c-0.03386,2.67577 -0.06266,4.95143 -0.06266,4.95143l-166.05976,-0.216l-0.01548,-60.70237z" data-paper-data="{&quot;index&quot;:null}" fill="#a5a5a5" stroke="none" stroke-width="0"/><path d="M480.50006,-21.5v197h-244v-197z" data-paper-data="{&quot;index&quot;:null}" fill="#a5a5a5" stroke="none" stroke-width="0"/><path d="M-36.04546,398.40909v-363h185v363z" fill="#a5a5a5" stroke="none" stroke-width="0"/><path d="M133.5,403.5v-67h357v67z" fill="#a5a5a5" stroke="none" stroke-width="0"/><path d="M438.50001,350.5v-198h76v198z" fill="#a5a5a5" stroke="none" stroke-width="0"/><path d="M236.82182,335.41465v-177.76288h34.67742v177.76288z" fill="#4d4d4d" stroke="#000000" stroke-width="2.5"/><g data-paper-data="{&quot;index&quot;:null}" stroke="#000000"><path d="M278.63286,323.98177c-2.04002,-0.79667 -3.30233,-4.17082 -2.81944,-7.53638c0.4829,-3.36556 2.52813,-5.44806 4.56816,-4.6514c2.04002,0.79666 3.30233,4.17082 2.81944,7.53638c-0.48289,3.36556 -2.52813,5.44806 -4.56816,4.6514z" fill="#9ad3ff" stroke-width="2.5"/><path d="M281.19495,321.63293l-3.67259,-0.60986l0.6696,-4.67181l-6.54369,-2.36353l0.56361,-4.9916l10.05801,3.09096l-0.56361,4.9916z" fill="#404040" stroke-width="2"/><path d="M276.03996,316.85761c0.46275,-3.22512 1.455,-2.53645 2.78973,-2.01522c1.33471,0.52123 2.50646,0.67767 2.04371,3.90277c-0.46275,3.22512 -1.91988,5.41703 -3.2546,4.8958c-1.33471,-0.52123 -2.0416,-3.55824 -1.57885,-6.78334z" fill="#9ad3ff" stroke-width="2.5"/></g><path d="M280.18507,326.96933c-4.23236,0 -7.66337,-5.66035 -7.66337,-12.64274c0,-6.98239 3.43101,-12.64274 7.66337,-12.64274c4.23236,0 7.66337,5.66035 7.66337,12.64274c0,6.98239 -3.43101,12.64274 -7.66337,12.64274z" data-paper-data="{&quot;index&quot;:null}" fill="#9ad3ff" stroke="#000000" stroke-width="2.5"/><path d="M280.2247,307.70205c0.44765,0 0.81055,2.44682 0.81055,5.46512c0,3.0183 -0.36289,5.46512 -0.81055,5.46512c-0.44765,0 -0.81055,-2.44682 -0.81055,-5.46512c0,-3.0183 0.36289,-5.46512 0.81055,-5.46512z" data-paper-data="{&quot;index&quot;:null}" fill="#000000" stroke="#000000" stroke-width="2.5"/><path d="M276.6301,307.93461c0.3698,0 0.66958,2.16049 0.66958,4.82558c0,2.6651 -0.29978,4.82558 -0.66958,4.82558c-0.3698,0 -0.66958,-2.16049 -0.66958,-4.82558c0,-2.6651 0.29978,-4.82558 0.66958,-4.82558z" data-paper-data="{&quot;index&quot;:null}" fill="#000000" stroke="#000000" stroke-width="2.5"/><path d="M280.43755,326.73114c-2.0964,0 -3.79587,-2.80372 -3.79587,-6.26229c0,-3.45856 1.69947,-6.26229 3.79587,-6.26229c2.09641,0 3.79587,2.80372 3.79587,6.26229c0,3.45857 -1.69947,6.26229 -3.79587,6.26229z" data-paper-data="{&quot;index&quot;:null}" fill="#9ad3ff" stroke="#000000" stroke-width="2.5"/></g></g></svg>