<svg version="1.1" xmlns="http://www.w3.org/2000/svg" xmlns:xlink="http://www.w3.org/1999/xlink" width="86.40607" height="69.42852" viewBox="0,0,86.40607,69.42852"><g transform="translate(-197.29942,-143.1463)"><g data-paper-data="{&quot;isPaintingLayer&quot;:true}" fill-rule="nonzero" stroke-linecap="butt" stroke-linejoin="miter" stroke-miterlimit="10" stroke-dasharray="" stroke-dashoffset="0" style="mix-blend-mode: normal"><path d="M251.05264,191.05264c0,-7.70292 6.24444,-13.94737 13.94736,-13.94737c7.70292,0 13.94737,6.24445 13.94737,13.94737c0,7.70292 -6.24445,13.94736 -13.94737,13.94736c-7.70292,0 -13.94736,-6.24444 -13.94736,-13.94736z" fill="#9ad3ff" stroke="#000000" stroke-width="5"/><g stroke="#000000" stroke-width="5"><path d="M211.84211,178.1579c0,-15.55117 12.60672,-28.15789 28.15789,-28.15789c15.55118,0 28.15789,12.60672 28.15789,28.15789c0,15.55118 -12.60672,28.15789 -28.15789,28.15789c-15.55117,0 -28.15789,-12.60672 -28.15789,-28.15789z" fill="#9ad3ff"/><path d="M242.59565,177.17872c0,4.50548 -1.06038,8.1579 -2.36843,8.1579c-1.30804,0 -2.36842,-3.65242 -2.36842,-8.1579c0,-4.50548 1.06038,-8.15789 2.36842,-8.15789c1.30804,0 2.36843,3.65241 2.36843,8.15789z" fill="#000000"/><path d="M255.49039,176.38925c0,4.50548 -1.06038,8.1579 -2.36843,8.1579c-1.30804,0 -2.36842,-3.65242 -2.36842,-8.1579c0,-4.50548 1.06038,-8.15789 2.36842,-8.15789c1.30805,0 2.36843,3.65241 2.36843,8.15789z" fill="#000000"/></g><path d="M200.26316,191.57896c0,-7.70292 6.24444,-13.94737 13.94736,-13.94737c7.70292,0 13.94737,6.24445 13.94737,13.94737c0,7.70292 -6.24445,13.94736 -13.94737,13.94736c-7.70292,0 -13.94736,-6.24444 -13.94736,-13.94736z" fill="#9ad3ff" stroke="#000000" stroke-width="5"/><path d="M197.29942,212.57482v-69.42852h86.40607v69.42852z" fill="none" stroke="none" stroke-width="0"/></g></g></svg>