<svg version="1.1" xmlns="http://www.w3.org/2000/svg" xmlns:xlink="http://www.w3.org/1999/xlink" width="550.54547" height="425.09804" viewBox="0,0,550.54547,425.09804"><g transform="translate(36.04546,21.5)"><g data-paper-data="{&quot;isPaintingLayer&quot;:true}" fill-rule="nonzero" stroke-linecap="butt" stroke-linejoin="miter" stroke-miterlimit="10" stroke-dasharray="" stroke-dashoffset="0" style="mix-blend-mode: normal"><path d="M150.07142,-12.00004c0,0 -1.00288,44.51456 -1.14781,55.96694c-0.03386,2.67577 -0.06266,4.95143 -0.06266,4.95143l-166.05976,-0.216l-0.01548,-60.70237z" data-paper-data="{&quot;index&quot;:null}" fill="#a5a5a5" stroke="none" stroke-width="0"/><path d="M480.50017,-21.5v197h-244v-197z" data-paper-data="{&quot;index&quot;:null}" fill="#a5a5a5" stroke="none" stroke-width="0"/><path d="M-36.04546,398.40909v-363h185v363z" fill="#a5a5a5" stroke="none" stroke-width="0"/><path d="M132.81374,403.59804v-67h357v67z" fill="#a5a5a5" stroke="none" stroke-width="0"/><path d="M438.50002,350.5v-198h76v198z" fill="#a5a5a5" stroke="none" stroke-width="0"/><path d="M236.82187,335.41465v-177.76288h34.67742v177.76288z" fill="#4d4d4d" stroke="#000000" stroke-width="2.5"/><g data-paper-data="{&quot;index&quot;:null}" stroke="#000000"><path d="M353.68907,324.85211c-0.89129,-3.36306 1.09746,-6.80354 4.442,-7.68453c3.34456,-0.88097 6.77841,1.13116 7.66971,4.49419c0.89131,3.36305 -1.09746,6.80354 -4.442,7.68453c-3.34454,0.88099 -6.77841,-1.13116 -7.66971,-4.49419z" fill="#9ad3ff" stroke-width="2.5"/><path d="M357.7615,327.49538l-2.33138,-5.66542l4.64209,-1.22396l-3.02817,-10.69697l4.84125,-1.53003l5.13224,16.18611l-4.84125,1.53003z" fill="#404040" stroke-width="2"/><path d="M357.94464,317.69385c3.20499,-0.84421 3.37297,0.93366 3.95615,3.13404c0.58314,2.20032 1.36059,3.98988 -1.84438,4.83409c-3.20499,0.84421 -6.27588,-0.25516 -6.85901,-2.45547c-0.58314,-2.20032 1.54227,-4.66844 4.74724,-5.51263z" fill="#9ad3ff" stroke-width="2.5"/></g><path d="M352.26764,328.53467c-3.30638,-6.19731 -0.99618,-13.89212 5.15999,-17.18681c6.15617,-3.2947 13.82708,-0.94165 17.13347,5.25566c3.30638,6.19731 0.99618,13.89212 -5.15999,17.18681c-6.15617,3.2947 -13.82708,0.94165 -17.13347,-5.25566z" data-paper-data="{&quot;index&quot;:null}" fill="#9ad3ff" stroke="#000000" stroke-width="2.5"/><path d="M369.28599,319.50131c0.34971,0.65548 -1.52407,2.34141 -4.18522,3.76561c-2.66115,1.42421 -5.10193,2.04739 -5.45165,1.39191c-0.34971,-0.65548 1.52407,-2.34141 4.18522,-3.76561c2.66115,-1.42421 5.10193,-2.04739 5.45165,-1.39191z" data-paper-data="{&quot;index&quot;:null}" fill="#000000" stroke="#000000" stroke-width="2.5"/><path d="M366.27281,314.3476c0.28889,0.54149 -1.38174,1.99991 -3.73148,3.25745c-2.34974,1.25754 -4.48877,1.83804 -4.77767,1.29652c-0.28889,-0.54149 1.38174,-1.99991 3.73148,-3.25745c2.34974,-1.25754 4.48877,-1.83804 4.77767,-1.29652z" data-paper-data="{&quot;index&quot;:null}" fill="#000000" stroke="#000000" stroke-width="2.5"/><path d="M352.67489,328.79198c-1.63775,-3.06969 -0.49343,-6.88113 2.55588,-8.51308c3.04931,-1.63195 6.84893,-0.46643 8.48666,2.60326c1.63775,3.06973 0.49343,6.88113 -2.55588,8.51308c-3.04933,1.63195 -6.84893,0.46643 -8.48666,-2.60326z" data-paper-data="{&quot;index&quot;:null}" fill="#9ad3ff" stroke="#000000" stroke-width="2.5"/></g></g></svg>