<svg version="1.1" xmlns="http://www.w3.org/2000/svg" xmlns:xlink="http://www.w3.org/1999/xlink" width="403.74968" height="287.25215" viewBox="0,0,403.74968,287.25215"><g transform="translate(-19.25,-29.4541)"><g data-paper-data="{&quot;isPaintingLayer&quot;:true}" fill-rule="nonzero" stroke-linecap="butt" stroke-linejoin="miter" stroke-miterlimit="10" stroke-dasharray="" stroke-dashoffset="0" style="mix-blend-mode: normal"><text transform="translate(19.5,196.08125) scale(0.5,0.5)" font-size="40" xml:space="preserve" fill="#000000" fill-rule="nonzero" stroke="none" stroke-width="1" stroke-linecap="butt" stroke-linejoin="miter" stroke-miterlimit="10" stroke-dasharray="" stroke-dashoffset="0" font-family="Pixel" font-weight="normal" text-anchor="start" style="mix-blend-mode: normal"><tspan x="0" dy="0">Fisher Price escape, es un juego de </tspan><tspan x="0" dy="46.150000000000006px">plataformas basado en el universo de</tspan><tspan x="0" dy="46.150000000000006px">Disparatil!.</tspan><tspan x="0" dy="46.150000000000006px"> </tspan><tspan x="0" dy="46.150000000000006px"> </tspan><tspan x="0" dy="46.150000000000006px">SI, es una prequela.</tspan></text><path d="M420.49968,74.94953c0,23.74572 -19.24971,42.99543 -42.99543,42.99543c-23.74572,0 -42.99543,-19.24971 -42.99543,-42.99543c0,-23.74572 19.24971,-42.99543 42.99543,-42.99543c23.74572,0 42.99543,19.24971 42.99543,42.99543z" fill="#7f48ff" stroke="#000000" stroke-width="5"/><path d="M359.29888,83.55459c-0.87736,0 -1.58859,-5.6109 -1.58859,-12.53227c0,-6.92138 0.71123,-12.53226 1.58859,-12.53226c0.87736,0 1.5886,5.61089 1.5886,12.53226c0,6.92138 -0.71124,12.53227 -1.5886,12.53227z" fill="#abfff3" stroke="#000000" stroke-width="5"/><path d="M375.41772,70.31628c0,7.70125 -0.82977,13.94435 -1.85336,13.94435c-1.02359,0 -1.85336,-6.2431 -1.85336,-13.94435c0,-7.70125 0.82978,-13.94435 1.85336,-13.94435c1.02359,0 1.85336,6.2431 1.85336,13.94435z" fill="#abfff3" stroke="#000000" stroke-width="5"/></g></g></svg>