<svg version="1.1" xmlns="http://www.w3.org/2000/svg" xmlns:xlink="http://www.w3.org/1999/xlink" width="550.54547" height="425" viewBox="0,0,550.54547,425"><g transform="translate(36.04546,21.5)"><g data-paper-data="{&quot;isPaintingLayer&quot;:true}" fill-rule="nonzero" stroke-linecap="butt" stroke-linejoin="miter" stroke-miterlimit="10" stroke-dasharray="" stroke-dashoffset="0" style="mix-blend-mode: normal"><path d="M150.07142,-12.00004c0,0 -1.00288,44.51456 -1.14781,55.96694c-0.03386,2.67577 -0.06266,4.95143 -0.06266,4.95143l-166.05976,-0.216l-0.01548,-60.70237z" data-paper-data="{&quot;index&quot;:null}" fill="#a5a5a5" stroke="none" stroke-width="0"/><path d="M480.50011,-21.5v197h-244v-197z" data-paper-data="{&quot;index&quot;:null}" fill="#a5a5a5" stroke="none" stroke-width="0"/><path d="M-36.04546,398.40909v-363h185v363z" fill="#a5a5a5" stroke="none" stroke-width="0"/><path d="M133.5,403.5v-67h357v67z" fill="#a5a5a5" stroke="none" stroke-width="0"/><path d="M438.50001,350.5v-198h76v198z" fill="#a5a5a5" stroke="none" stroke-width="0"/><path d="M236.82187,335.41465v-177.76288h34.67742v177.76288z" fill="#4d4d4d" stroke="#000000" stroke-width="2.5"/><g data-paper-data="{&quot;index&quot;:null}" stroke="#000000"><path d="M300.05422,323.09941c-3.74373,-0.79667 -6.06024,-4.17082 -5.17408,-7.53638c0.88618,-3.36556 4.63948,-5.44806 8.38319,-4.6514c3.74373,0.79666 6.06024,4.17082 5.17408,7.53638c-0.88616,3.36556 -4.63948,5.44806 -8.38319,4.6514z" fill="#9ad3ff" stroke-width="2.5"/><path d="M304.75601,320.75057l-6.73971,-0.60986l1.2288,-4.67181l-12.00859,-2.36353l1.03433,-4.9916l18.45784,3.09096l-1.03433,4.9916z" fill="#404040" stroke-width="2"/><path d="M295.29592,315.97525c0.8492,-3.22512 2.67012,-2.53645 5.11957,-2.01522c2.44937,0.52123 4.59969,0.67767 3.75049,3.90277c-0.8492,3.22512 -3.52326,5.41703 -5.97263,4.8958c-2.44937,-0.52123 -3.74662,-3.55824 -2.89741,-6.78334z" fill="#9ad3ff" stroke-width="2.5"/></g><path d="M302.90275,326.08697c-7.76697,0 -14.06336,-5.66035 -14.06336,-12.64274c0,-6.98239 6.29637,-12.64274 14.06336,-12.64274c7.76697,0 14.06336,5.66035 14.06336,12.64274c0,6.98239 -6.29637,12.64274 -14.06336,12.64274z" data-paper-data="{&quot;index&quot;:null}" fill="#9ad3ff" stroke="#000000" stroke-width="2.5"/><path d="M302.97549,306.81969c0.8215,0 1.48747,2.44682 1.48747,5.46512c0,3.0183 -0.66595,5.46512 -1.48747,5.46512c-0.8215,0 -1.48747,-2.44682 -1.48747,-5.46512c0,-3.0183 0.66595,-5.46512 1.48747,-5.46512z" data-paper-data="{&quot;index&quot;:null}" fill="#000000" stroke="#000000" stroke-width="2.5"/><path d="M296.37891,307.05225c0.67864,0 1.22879,2.16049 1.22879,4.82558c0,2.6651 -0.55014,4.82558 -1.22879,4.82558c-0.67864,0 -1.22879,-2.16049 -1.22879,-4.82558c0,-2.6651 0.55014,-4.82558 1.22879,-4.82558z" data-paper-data="{&quot;index&quot;:null}" fill="#000000" stroke="#000000" stroke-width="2.5"/><path d="M303.36609,325.84878c-3.84719,0 -6.96595,-2.80372 -6.96595,-6.26229c0,-3.45856 3.11877,-6.26229 6.96595,-6.26229c3.84723,0 6.96595,2.80372 6.96595,6.26229c0,3.45857 -3.11877,6.26229 -6.96595,6.26229z" data-paper-data="{&quot;index&quot;:null}" fill="#9ad3ff" stroke="#000000" stroke-width="2.5"/></g></g></svg>