<svg version="1.1" xmlns="http://www.w3.org/2000/svg" xmlns:xlink="http://www.w3.org/1999/xlink" width="124.14661" height="70.39473" viewBox="0,0,124.14661,70.39473"><g transform="translate(-195.64307,-144.38856)"><g data-paper-data="{&quot;isPaintingLayer&quot;:true}" fill-rule="nonzero" stroke-linecap="butt" stroke-linejoin="miter" stroke-miterlimit="10" stroke-dasharray="" stroke-dashoffset="0" style="mix-blend-mode: normal"><g stroke="#000000"><path d="M268.56578,185.88951c0,-7.70292 6.24444,-13.94737 13.94736,-13.94737c7.70292,0 13.94737,6.24445 13.94737,13.94737c0,7.70292 -6.24445,13.94736 -13.94737,13.94736c-7.70292,0 -13.94736,-6.24444 -13.94736,-13.94736z" fill="#9ad3ff" stroke-width="5"/><path d="M275.06552,182.27452l0.54562,-11.29534l37.54858,1.81376l-0.54562,11.29534l-24.6098,-0.41591l-0.00259,10.69198l-13.44436,-1.78662z" fill="#404040" stroke-width="4"/><path d="M286.31381,199.95648c-5.03974,0 -9.12527,-5.98384 -9.12527,-13.36529c0,-7.38145 4.26988,-6.72873 9.30962,-6.72873c5.03975,0 8.94092,-0.65272 8.94092,6.72873c0,7.38144 -4.08553,13.36529 -9.12527,13.36529z" fill="#9ad3ff" stroke-width="5"/></g><path d="M211.84211,180.00003c0,-15.55117 12.60672,-28.15789 28.15789,-28.15789c15.55118,0 28.15789,12.60672 28.15789,28.15789c0,15.55118 -12.60672,28.15789 -28.15789,28.15789c-15.55117,0 -28.15789,-12.60672 -28.15789,-28.15789z" fill="#9ad3ff" stroke="#000000" stroke-width="5"/><path d="M242.78,179.02084c0,4.50548 -1.06038,8.1579 -2.36843,8.1579c-1.30804,0 -2.36842,-3.65242 -2.36842,-8.1579c0,-2.15079 1.28823,-8.69857 1.28823,-8.69857l2.73933,4.78071c0,0 0.70929,-0.58761 0.70929,3.91787z" fill="#000000" stroke="#000000" stroke-width="5"/><path d="M255.49039,178.23138c0,4.50548 -1.06038,8.1579 -2.36843,8.1579c-1.30804,0 -2.36842,-3.65242 -2.36842,-8.1579c0,-4.50548 0.89363,-4.10222 0.89363,-4.10222l3.13512,-3.95265c0,0 0.7081,6.26019 0.7081,8.05486z" fill="#000000" stroke="#000000" stroke-width="5"/><path d="M200.26316,193.42108c0,-7.70292 6.24444,-13.94737 13.94736,-13.94737c7.70292,0 13.94737,6.24445 13.94737,13.94737c0,7.70292 -6.24445,13.94736 -13.94737,13.94736c-7.70292,0 -13.94736,-6.24444 -13.94736,-13.94736z" fill="#9ad3ff" stroke="#000000" stroke-width="5"/><path d="M195.64307,214.78329v-70.39473h124.14661v70.39473z" fill="none" stroke="none" stroke-width="0"/></g></g></svg>