<svg version="1.1" xmlns="http://www.w3.org/2000/svg" xmlns:xlink="http://www.w3.org/1999/xlink" width="75.63192" height="75.5184" viewBox="0,0,75.63192,75.5184"><g transform="translate(-202.26423,-142.43992)"><g data-paper-data="{&quot;isPaintingLayer&quot;:true}" fill-rule="nonzero" stroke-linecap="butt" stroke-linejoin="miter" stroke-miterlimit="10" stroke-dasharray="" stroke-dashoffset="0" style="mix-blend-mode: normal"><path d="M206.55925,180c0,-18.46881 14.97193,-33.44075 33.44075,-33.44075c18.46881,0 33.44075,14.97193 33.44075,33.44075c0,18.46881 -14.97193,33.44075 -33.44075,33.44075c-18.46881,0 -33.44075,-14.97193 -33.44075,-33.44075z" fill="#ffffff" stroke="#b9b9b9" stroke-width="6"/><path d="M202.26423,217.95832v-75.5184h75.63192v75.5184z" fill="none" stroke="none" stroke-width="0"/><path d="M242.1152,189.3709c1.0924,2.7937 1.42438,5.2114 2.50453,7.88868c0.58289,1.44476 2.29868,3.03927 1.55415,4.40776c-0.81415,1.49646 -3.16817,1.31856 -4.84202,1.63557c-2.88381,0.54616 -6.60404,0.00184 -9.57137,0.00184h-2.67784c-0.13261,0 -0.26281,-0.01033 -0.38984,-0.03022c-0.49368,0.21323 -2.24271,0.79816 -3.25325,-1.07855c-1.18525,-2.20118 1.01593,-3.38643 1.01593,-3.38643l2.5167,-1.34721c0.34156,-0.25744 4.68342,-3.51909 4.84879,-3.69119c4.37233,-4.55 3.65307,-11.44039 3.62769,-17.45078c-0.50813,0 -0.97963,0 -1.36244,0c0,0 -2.5,0 -2.5,-2.5c0,-2.5 2.5,-2.5 2.5,-2.5c1.24945,0 2.49891,0 3.74836,0c0.06979,-0.00227 0.14166,-0.00232 0.21568,0h0.97967c0,0 2.5,0 2.5,2.5c0,1.15541 -0.53399,1.77683 -1.10839,2.11106c-0.09703,4.26066 0.13884,8.6839 -0.69608,12.78772c0.26724,0.34552 0.38973,0.65175 0.38973,0.65175z" fill="#b9b9b9" stroke="none" stroke-width="0.5"/><path d="M244.14344,164.63481c-0.60224,1.38619 -2.28955,1.38619 -2.28955,1.38619c-1.40139,-0.17334 -3.23608,0.50795 -4.20418,-0.52003c-3.3103,-3.51504 -2.40784,-11.9581 3.57754,-12.29827c7.52787,-0.42783 6.96615,8.7705 2.91619,11.43211z" fill="#b9b9b9" stroke="none" stroke-width="0.5"/></g></g></svg>