<svg version="1.1" xmlns="http://www.w3.org/2000/svg" xmlns:xlink="http://www.w3.org/1999/xlink" width="550.54547" height="425" viewBox="0,0,550.54547,425"><g transform="translate(36.04546,21.5)"><g data-paper-data="{&quot;isPaintingLayer&quot;:true}" fill-rule="nonzero" stroke-linecap="butt" stroke-linejoin="miter" stroke-miterlimit="10" stroke-dasharray="" stroke-dashoffset="0" style="mix-blend-mode: normal"><path d="M150.07142,-12.00004c0,0 -1.00288,44.51456 -1.14781,55.96694c-0.03386,2.67577 -0.06266,4.95143 -0.06266,4.95143l-166.05976,-0.216l-0.01548,-60.70237z" data-paper-data="{&quot;index&quot;:null}" fill="#a5a5a5" stroke="none" stroke-width="0"/><path d="M480.50002,-21.5v197h-244v-197z" data-paper-data="{&quot;index&quot;:null}" fill="#a5a5a5" stroke="none" stroke-width="0"/><path d="M-36.04546,398.40909v-363h185v363z" fill="#a5a5a5" stroke="none" stroke-width="0"/><path d="M133.5,403.5v-67h357v67z" fill="#a5a5a5" stroke="none" stroke-width="0"/><path d="M438.50001,350.5v-198h76v198z" fill="#a5a5a5" stroke="none" stroke-width="0"/><path d="M338.74851,316.7488c0,-6.98239 6.93673,-12.64274 15.49362,-12.64274c8.55689,0 15.49362,5.66035 15.49362,12.64274c0,6.98239 -6.93673,12.64274 -15.49362,12.64274c-8.55689,0 -15.49362,-5.66035 -15.49362,-12.64274z" fill="#9ad3ff" stroke="#000000" stroke-width="2.5"/><path d="M351.67456,315.43196c0,2.02294 -1.47756,3.66285 -3.30025,3.66285c-1.82266,0 -3.30025,-1.63991 -3.30025,-3.66285c0,-0.71591 0.73223,-1.80117 0.73223,-1.80117l4.87991,0.04207c0,0 0.98836,-0.26384 0.98836,1.7591z" fill="#000000" stroke="#000000" stroke-width="2.5"/><path d="M361.32882,315.42838c0,2.02294 -1.43829,3.66285 -3.21253,3.66285c-1.77422,0 -3.21253,-1.63991 -3.21253,-3.66285c0,-2.02294 1.2121,-1.4749 1.2121,-1.4749l4.45938,-0.08124c0,0 0.75355,0.75034 0.75355,1.55614z" fill="#000000" stroke="#000000" stroke-width="2.5"/><g stroke="#000000"><path d="M365.43444,319.60345c-1.22177,-3.23558 0.41073,-6.84898 3.64631,-8.07075c3.23558,-1.22177 6.84897,0.41074 8.07075,3.64631c1.22177,3.23558 -0.41074,6.84897 -3.64631,8.07075c-3.23558,1.22177 -6.84898,-0.41073 -8.07075,-3.64631z" fill="#9ad3ff" stroke-width="2.5"/><path d="M367.59123,317.05406l-1.5624,-4.8311l16.0598,-5.1938l1.5624,4.8311l-10.40321,3.72871l1.6948,4.49152l-5.93063,1.38198z" fill="#404040" stroke-width="2"/><path d="M375.12061,322.69718c-2.11693,0.79937 -4.78214,-1.0661 -5.95293,-4.16665c-1.17079,-3.10054 0.72629,-3.50363 2.8432,-4.303c2.11693,-0.79937 3.65205,-1.69232 4.82286,1.40824c1.17079,3.10054 0.40379,6.26204 -1.71313,7.06141z" fill="#9ad3ff" stroke-width="2.5"/></g><path d="M328.81279,318.47654c0,-3.45857 2.80372,-6.26229 6.26229,-6.26229c3.45857,0 6.26229,2.80373 6.26229,6.26229c0,3.45857 -2.80373,6.26229 -6.26229,6.26229c-3.45857,0 -6.26229,-2.80372 -6.26229,-6.26229z" fill="#9ad3ff" stroke="#000000" stroke-width="2.5"/><path d="M332.04855,332.7833v-31.60685h55.74115v31.60685z" fill="none" stroke="none" stroke-width="0"/><path d="M236.88766,287.95063v-130.14734h34.67742v130.14734z" fill="#4d4d4d" stroke="#000000" stroke-width="2.5"/></g></g></svg>