<svg version="1.1" xmlns="http://www.w3.org/2000/svg" xmlns:xlink="http://www.w3.org/1999/xlink" width="41.70709" height="78.25405" viewBox="0,0,41.70709,78.25405"><g transform="translate(-221.04558,-149.75802)"><g data-paper-data="{&quot;isPaintingLayer&quot;:true}" fill-rule="nonzero" stroke="none" stroke-width="0.7942" stroke-linecap="butt" stroke-linejoin="miter" stroke-miterlimit="10" stroke-dasharray="" stroke-dashoffset="0" style="mix-blend-mode: normal"><path d="M259.9789,149.77445c0.80083,0.23064 1.60165,0.46129 2.40249,0.69192c-1.2238,5.3905 0.7225,9.02717 0.31377,13.96644c-3.16471,5.14371 -7.21112,4.78487 -12.038,8.67457c3.98299,8.12239 11.44068,14.32467 8.98834,26.00444c-0.30746,1.06753 -0.61514,2.13588 -0.92256,3.20332c-7.19427,12.56466 -15.3962,23.30661 -28.21482,25.69693c-1.33505,-0.3845 -2.66919,-0.76874 -4.00414,-1.15321c-2.76739,-5.20362 -4.58894,-10.93 -5.45839,-17.18261c6.58273,-3.65973 15.85477,-3.94065 17.99628,-11.29483c2.59298,-8.90395 -17.91195,-20.81204 -15.65511,-30.90643c0.3845,-1.33505 0.76874,-5.61037 1.15321,-6.94532c7.24463,-10.44448 22.34729,-10.88924 35.43894,-10.75521zM240.61161,159.80717c-3.05549,9.7447 -5.79761,12.92442 -2.33206,20.14235c2.33675,4.86796 7.65369,7.66891 7.87371,11.80746c0.44478,8.37739 -7.16148,15.17848 -15.37599,17.25301c-0.23069,4.16752 -0.46654,8.3378 3.06874,10.42361c10.3246,-6.02857 24.32453,-11.36719 23.98003,-26.04932c-0.21415,-9.127 -21.47667,-19.54378 -19.74786,-27.57613c1.29665,-6.02603 16.47444,-3.40822 21.41366,-2.2979c-0.49797,-3.54047 0.52208,-7.91941 -1.23633,-10.76313c-6.25947,1.66976 -12.79572,2.83742 -17.6439,7.06005z" fill="#000000"/><path d="M258.25551,152.74713c1.75841,2.84372 0.73836,7.22265 1.23633,10.76313c-4.93922,-1.11032 -17.56799,-2.35558 -18.86464,3.67045c-1.72881,8.03235 16.98469,17.07658 17.19884,26.20358c0.3445,14.68213 -13.65543,20.02074 -23.98003,26.04932c-3.53528,-2.08581 -3.29943,-6.25609 -3.06874,-10.42361c8.21451,-2.07452 15.82077,-8.87562 15.37599,-17.25301c-0.22002,-4.13854 -7.10559,-6.74342 -9.44234,-11.61138c-0.22864,-0.47621 -6.55393,-7.21106 -6.81473,-7.65835c-3.69208,-6.33227 -2.53063,-3.97046 0.32327,-13.07223c4.84819,-4.22262 21.77659,-4.99813 28.03606,-6.66789z" fill="#ff9400"/></g></g></svg>