<svg version="1.1" xmlns="http://www.w3.org/2000/svg" xmlns:xlink="http://www.w3.org/1999/xlink" width="550.54546" height="425" viewBox="0,0,550.54546,425"><g transform="translate(36.04545,21.5)"><g data-paper-data="{&quot;isPaintingLayer&quot;:true}" fill-rule="nonzero" stroke-linecap="butt" stroke-linejoin="miter" stroke-miterlimit="10" stroke-dasharray="" stroke-dashoffset="0" style="mix-blend-mode: normal"><path d="M150.07143,-12.00004c0,0 -1.00288,44.51456 -1.14781,55.96694c-0.03386,2.67577 -0.06266,4.95143 -0.06266,4.95143l-166.05976,-0.216l-0.01548,-60.70237z" data-paper-data="{&quot;index&quot;:null}" fill="#a5a5a5" stroke="none" stroke-width="0"/><path d="M480.5,-21.5v197h-244v-197z" data-paper-data="{&quot;index&quot;:null}" fill="#a5a5a5" stroke="none" stroke-width="0"/><path d="M-36.04545,398.40909v-363h185v363z" fill="#a5a5a5" stroke="none" stroke-width="0"/><path d="M133.5,403.5v-67h357v67z" fill="#a5a5a5" stroke="none" stroke-width="0"/><path d="M438.50001,350.5v-198h76v198z" fill="#a5a5a5" stroke="none" stroke-width="0"/><g><path d="M366.46342,319.24808c0,-3.45857 2.80372,-6.26229 6.26229,-6.26229c3.45857,0 6.26229,2.80373 6.26229,6.26229c0,3.45857 -2.80373,6.26229 -6.26229,6.26229c-3.45857,0 -6.26229,-2.80372 -6.26229,-6.26229z" fill="#9ad3ff" stroke="#000000" stroke-width="2.5"/><path d="M369.38176,317.62497l0.24498,-5.07155l16.85911,0.81437l-0.24498,5.07155l-11.04966,-0.18674l-0.00116,4.80064l-6.03644,-0.80218z" fill="#404040" stroke="#000000" stroke-width="2"/><path d="M374.43218,325.56408c-2.26282,0 -4.0972,-2.68671 -4.0972,-6.00094c0,-3.31423 1.91716,-3.02117 4.17997,-3.02117c2.26282,0 4.01442,-0.29307 4.01442,3.02117c0,3.31423 -1.83438,6.00094 -4.0972,6.00094z" fill="#9ad3ff" stroke="#000000" stroke-width="2.5"/><path d="M341.29236,317.09968c0,-6.98239 5.66035,-12.64274 12.64274,-12.64274c6.98239,0 12.64274,5.66035 12.64274,12.64274c0,6.98239 -5.66035,12.64274 -12.64274,12.64274c-6.98239,0 -12.64274,-5.66035 -12.64274,-12.64274z" fill="#9ad3ff" stroke="#000000" stroke-width="2.5"/><path d="M355.18331,316.66003c0,2.02294 -0.4761,3.66285 -1.06341,3.66285c-0.5873,0 -1.06341,-1.63991 -1.06341,-3.66285c0,-0.96569 0.57841,-3.90561 0.57841,-3.90561l1.22994,2.14651c0,0 0.31847,-0.26384 0.31847,1.7591z" fill="#000000" stroke="#000000" stroke-width="2.5"/><path d="M360.8902,316.30557c0,2.02294 -0.4761,3.66285 -1.06341,3.66285c-0.5873,0 -1.06341,-1.63991 -1.06341,-3.66285c0,-2.02294 0.40123,-1.84187 0.40123,-1.84187l1.40765,-1.77472c0,0 0.31793,2.81079 0.31793,3.61659z" fill="#000000" stroke="#000000" stroke-width="2.5"/><path d="M336.09348,323.12566c0,-3.45857 2.80372,-6.26229 6.26229,-6.26229c3.45857,0 6.26229,2.80373 6.26229,6.26229c0,3.45857 -2.80373,6.26229 -6.26229,6.26229c-3.45857,0 -6.26229,-2.80372 -6.26229,-6.26229z" fill="#9ad3ff" stroke="#000000" stroke-width="2.5"/><path d="M332.04853,332.7833v-31.60685h55.74115v31.60685z" fill="none" stroke="none" stroke-width="0"/></g><path d="M236.67024,202.73688v-44.93359h34.67742v44.93359z" fill="#4d4d4d" stroke="#000000" stroke-width="2.5"/></g></g></svg>