<svg version="1.1" xmlns="http://www.w3.org/2000/svg" xmlns:xlink="http://www.w3.org/1999/xlink" width="95.79205" height="80.60365" viewBox="0,0,95.79205,80.60365"><g transform="translate(-191.77827,-141.34023)"><g data-paper-data="{&quot;isPaintingLayer&quot;:true}" fill-rule="nonzero" stroke-linecap="butt" stroke-linejoin="miter" stroke-miterlimit="10" stroke-dasharray="" stroke-dashoffset="0" style="mix-blend-mode: normal"><path d="M251.86146,162.78509c0,-7.70292 6.24444,-13.94737 13.94736,-13.94737c7.70292,0 13.94737,6.24445 13.94737,13.94737c0,7.70292 -6.24445,13.94736 -13.94737,13.94736c-7.70292,0 -13.94736,-6.24444 -13.94736,-13.94736z" fill="#9ad3ff" stroke="#000000" stroke-width="5"/><path d="M214.72136,178.60037c0,-15.55117 12.60672,-28.15789 28.15789,-28.15789c15.55118,0 28.15789,12.60672 28.15789,28.15789c0,15.55118 -12.60672,28.15789 -28.15789,28.15789c-15.55117,0 -28.15789,-12.60672 -28.15789,-28.15789z" fill="#9ad3ff" stroke="#000000" stroke-width="5"/><path d="M245.45734,177.33694c-0.31291,4.4946 -1.6244,8.06456 -2.92929,7.97371c-1.30488,-0.09085 -2.10903,-3.80809 -1.79612,-8.30269c0.31291,-4.4946 1.6244,-8.06455 2.92928,-7.9737c1.30488,0.09085 2.10904,3.80808 1.79613,8.30268z" fill="#000000" stroke="#000000" stroke-width="5"/><path d="M258.37578,177.44494c-0.31291,4.4946 -1.6244,8.06456 -2.92929,7.97371c-1.30488,-0.09085 -2.10903,-3.80809 -1.79612,-8.30269c0.31291,-4.4946 1.6244,-8.06455 2.92928,-7.9737c1.30489,0.09085 2.10904,3.80808 1.79613,8.30268z" fill="#000000" stroke="#000000" stroke-width="5"/><path d="M198.72549,201.82147c0,-7.70292 6.24444,-13.94737 13.94736,-13.94737c7.70292,0 13.94737,6.24445 13.94737,13.94737c0,7.70292 -6.24445,13.94736 -13.94737,13.94736c-7.70292,0 -13.94736,-6.24444 -13.94736,-13.94736z" fill="#9ad3ff" stroke="#000000" stroke-width="5"/><path d="M191.77827,221.94388v-80.60365h95.79205v80.60365z" fill="none" stroke="none" stroke-width="0"/></g></g></svg>