<svg version="1.1" xmlns="http://www.w3.org/2000/svg" xmlns:xlink="http://www.w3.org/1999/xlink" width="550.54547" height="425" viewBox="0,0,550.54547,425"><g transform="translate(36.04546,21.5)"><g data-paper-data="{&quot;isPaintingLayer&quot;:true}" fill-rule="nonzero" stroke-linecap="butt" stroke-linejoin="miter" stroke-miterlimit="10" stroke-dasharray="" stroke-dashoffset="0" style="mix-blend-mode: normal"><path d="M150.07142,-12.00004c0,0 -1.00288,44.51456 -1.14781,55.96694c-0.03386,2.67577 -0.06266,4.95143 -0.06266,4.95143l-166.05976,-0.216l-0.01548,-60.70237z" data-paper-data="{&quot;index&quot;:null}" fill="#a5a5a5" stroke="none" stroke-width="0"/><path d="M480.50009,-21.5v197h-244v-197z" data-paper-data="{&quot;index&quot;:null}" fill="#a5a5a5" stroke="none" stroke-width="0"/><path d="M-36.04546,398.40909v-363h185v363z" fill="#a5a5a5" stroke="none" stroke-width="0"/><path d="M133.5,403.5v-67h357v67z" fill="#a5a5a5" stroke="none" stroke-width="0"/><path d="M438.50001,350.5v-198h76v198z" fill="#a5a5a5" stroke="none" stroke-width="0"/><path d="M236.82185,335.41465v-177.76288h34.67742v177.76288z" fill="#4d4d4d" stroke="#000000" stroke-width="2.5"/><g data-paper-data="{&quot;index&quot;:null}" stroke="#000000"><path d="M281.4085,323.49157c-2.16348,-0.79667 -3.50218,-4.17082 -2.99007,-7.53638c0.51212,-3.36556 2.68113,-5.44806 4.8446,-4.6514c2.16348,0.79666 3.50218,4.17082 2.99007,7.53638c-0.51211,3.36556 -2.68113,5.44806 -4.8446,4.6514z" fill="#9ad3ff" stroke-width="2.5"/><path d="M284.12564,321.14273l-3.89484,-0.60986l0.71012,-4.67181l-6.9397,-2.36353l0.59773,-4.9916l10.66669,3.09096l-0.59773,4.9916z" fill="#404040" stroke-width="2"/><path d="M278.6587,316.36741c0.49075,-3.22512 1.54305,-2.53645 2.95857,-2.01522c1.41548,0.52123 2.65814,0.67767 2.16739,3.90277c-0.49075,3.22512 -2.03607,5.41703 -3.45155,4.8958c-1.41548,-0.52123 -2.16515,-3.55824 -1.6744,-6.78334z" fill="#9ad3ff" stroke-width="2.5"/></g><path d="M283.05465,326.47913c-4.48849,0 -8.12714,-5.66035 -8.12714,-12.64274c0,-6.98239 3.63864,-12.64274 8.12714,-12.64274c4.48849,0 8.12714,5.66035 8.12714,12.64274c0,6.98239 -3.63864,12.64274 -8.12714,12.64274z" data-paper-data="{&quot;index&quot;:null}" fill="#9ad3ff" stroke="#000000" stroke-width="2.5"/><path d="M283.09668,307.21185c0.47474,0 0.8596,2.44682 0.8596,5.46512c0,3.0183 -0.38485,5.46512 -0.8596,5.46512c-0.47474,0 -0.8596,-2.44682 -0.8596,-5.46512c0,-3.0183 0.38485,-5.46512 0.8596,-5.46512z" data-paper-data="{&quot;index&quot;:null}" fill="#000000" stroke="#000000" stroke-width="2.5"/><path d="M279.28455,307.44441c0.39218,0 0.71011,2.16049 0.71011,4.82558c0,2.6651 -0.31792,4.82558 -0.71011,4.82558c-0.39218,0 -0.71011,-2.16049 -0.71011,-4.82558c0,-2.6651 0.31792,-4.82558 0.71011,-4.82558z" data-paper-data="{&quot;index&quot;:null}" fill="#000000" stroke="#000000" stroke-width="2.5"/><path d="M283.32241,326.24094c-2.22327,0 -4.02558,-2.80372 -4.02558,-6.26229c0,-3.45856 1.80232,-6.26229 4.02558,-6.26229c2.22329,0 4.02558,2.80372 4.02558,6.26229c0,3.45857 -1.80232,6.26229 -4.02558,6.26229z" data-paper-data="{&quot;index&quot;:null}" fill="#9ad3ff" stroke="#000000" stroke-width="2.5"/></g></g></svg>