<svg version="1.1" xmlns="http://www.w3.org/2000/svg" xmlns:xlink="http://www.w3.org/1999/xlink" width="87.92439" height="69.84261" viewBox="0,0,87.92439,69.84261"><g transform="translate(-195.7811,-144.1125)"><g data-paper-data="{&quot;isPaintingLayer&quot;:true}" fill-rule="nonzero" stroke-linecap="butt" stroke-linejoin="miter" stroke-miterlimit="10" stroke-dasharray="" stroke-dashoffset="0" style="mix-blend-mode: normal"><path d="M251.44738,192.89474c0,-7.70292 6.24444,-13.94737 13.94736,-13.94737c7.70292,0 13.94737,6.24445 13.94737,13.94737c0,7.70292 -6.24445,13.94736 -13.94737,13.94736c-7.70292,0 -13.94736,-6.24444 -13.94736,-13.94736z" fill="#9ad3ff" stroke="#000000" stroke-width="5"/><g stroke="#000000" stroke-width="5"><path d="M212.23685,180c0,-15.55117 12.60672,-28.15789 28.15789,-28.15789c15.55118,0 28.15789,12.60672 28.15789,28.15789c0,15.55118 -12.60672,28.15789 -28.15789,28.15789c-15.55117,0 -28.15789,-12.60672 -28.15789,-28.15789z" fill="#9ad3ff"/><path d="M242.99039,179.02082c0,4.50548 -1.06038,8.1579 -2.36843,8.1579c-1.30804,0 -2.36842,-3.65242 -2.36842,-8.1579c0,-4.50548 1.06038,-8.15789 2.36842,-8.15789c1.30804,0 2.36843,3.65241 2.36843,8.15789z" fill="#000000"/><path d="M255.88513,178.23135c0,4.50548 -1.06038,8.1579 -2.36843,8.1579c-1.30804,0 -2.36842,-3.65242 -2.36842,-8.1579c0,-4.50548 1.06038,-8.15789 2.36842,-8.15789c1.30805,0 2.36843,3.65241 2.36843,8.15789z" fill="#000000"/></g><path d="M200.6579,193.42106c0,-7.70292 6.24444,-13.94737 13.94736,-13.94737c7.70292,0 13.94737,6.24445 13.94737,13.94737c0,7.70292 -6.24445,13.94736 -13.94737,13.94736c-7.70292,0 -13.94736,-6.24444 -13.94736,-13.94736z" fill="#9ad3ff" stroke="#000000" stroke-width="5"/><path d="M195.7811,213.95511v-69.84261h87.92439v69.84261z" fill="none" stroke="none" stroke-width="0"/></g></g></svg>