<svg version="1.1" xmlns="http://www.w3.org/2000/svg" xmlns:xlink="http://www.w3.org/1999/xlink" width="99.66833" height="74.67361" viewBox="0,0,99.66833,74.67361"><g transform="translate(-189.10434,-142.73222)"><g data-paper-data="{&quot;isPaintingLayer&quot;:true}" fill-rule="nonzero" stroke-linecap="butt" stroke-linejoin="miter" stroke-miterlimit="10" stroke-dasharray="" stroke-dashoffset="0" style="mix-blend-mode: normal"><path d="M250.89526,194.53173c0,-7.70292 6.24444,-13.94737 13.94736,-13.94737c7.70292,0 13.94737,6.24445 13.94737,13.94737c0,7.70292 -6.24445,13.94736 -13.94737,13.94736c-7.70292,0 -13.94736,-6.24444 -13.94736,-13.94736z" fill="#9ad3ff" stroke="#000000" stroke-width="5"/><path d="M214.72136,178.60037c0,-15.55117 12.60672,-28.15789 28.15789,-28.15789c15.55118,0 28.15789,12.60672 28.15789,28.15789c0,15.55118 -12.60672,28.15789 -28.15789,28.15789c-15.55117,0 -28.15789,-12.60672 -28.15789,-28.15789z" fill="#9ad3ff" stroke="#000000" stroke-width="5"/><path d="M245.33926,177.64511c0.02644,4.5054 -1.01249,8.16398 -2.32052,8.17166c-1.30802,0.00767 -2.38981,-3.63846 -2.41625,-8.14386c-0.02644,-4.5054 1.01249,-8.16397 2.32051,-8.17164c1.30802,-0.00767 2.38982,3.63845 2.41626,8.14385z" fill="#000000" stroke="#000000" stroke-width="5"/><path d="M258.22916,176.77999c0.02644,4.5054 -1.01249,8.16398 -2.32052,8.17166c-1.30802,0.00767 -2.38981,-3.63846 -2.41625,-8.14386c-0.02644,-4.5054 1.01249,-8.16397 2.32051,-8.17164c1.30803,-0.00768 2.38982,3.63845 2.41626,8.14385z" fill="#000000" stroke="#000000" stroke-width="5"/><path d="M197.34521,180.84108c0,-7.70292 6.24444,-13.94737 13.94736,-13.94737c7.70292,0 13.94737,6.24445 13.94737,13.94737c0,7.70292 -6.24445,13.94736 -13.94737,13.94736c-7.70292,0 -13.94736,-6.24444 -13.94736,-13.94736z" fill="#9ad3ff" stroke="#000000" stroke-width="5"/><path d="M189.10434,217.40583v-74.67361h99.66833v74.67361z" fill="none" stroke="none" stroke-width="0"/></g></g></svg>