<svg version="1.1" xmlns="http://www.w3.org/2000/svg" xmlns:xlink="http://www.w3.org/1999/xlink" width="97.19116" height="80.68699" viewBox="0,0,97.19116,80.68699"><g transform="translate(-188.42175,-137.2741)"><g data-paper-data="{&quot;isPaintingLayer&quot;:true}" fill-rule="nonzero" stroke-linecap="butt" stroke-linejoin="miter" stroke-miterlimit="10" stroke-dasharray="" stroke-dashoffset="0" style="mix-blend-mode: normal"><path d="M188.42175,217.96109v-80.68699h97.19116v80.68699z" data-paper-data="{&quot;index&quot;:null}" fill="none" stroke="none" stroke-width="0"/><path d="M235.76076,158.10548c0,-7.70292 6.24444,-13.94737 13.94736,-13.94737c7.70292,0 7.70292,27.89473 0,27.89473c-7.70292,0 -13.94736,-6.24444 -13.94736,-13.94736z" data-paper-data="{&quot;index&quot;:null}" fill="#9ad3ff" stroke="#000000" stroke-width="5"/><path d="M230.74845,206.91959c-15.55117,0 -28.15789,-12.60671 -28.15789,-28.15789c0,-15.55117 12.60671,-28.15789 28.15789,-28.15789c15.55117,0 28.15789,12.60672 28.15789,28.15789c0,15.55117 -12.60672,28.15789 -28.15789,28.15789z" data-paper-data="{&quot;index&quot;:null}" fill="#9ad3ff" stroke="#000000" stroke-width="5"/><path d="M240.7112,170.22373c0.02644,-4.5054 1.10824,-8.15152 2.41626,-8.14385c1.30802,0.00767 2.34695,3.66624 2.32051,8.17164c-0.02644,4.5054 -1.10823,8.15153 -2.41625,8.14386c-1.30803,-0.00768 -2.34696,-3.66626 -2.32052,-8.17166z" data-paper-data="{&quot;index&quot;:null}" fill="#000000" stroke="#000000" stroke-width="5"/><path d="M227.8213,169.35861c0.02644,-4.5054 1.10823,-8.15153 2.41626,-8.14385c1.30802,0.00767 2.34695,3.66624 2.32051,8.17164c-0.02644,4.5054 -1.10823,8.15153 -2.41625,8.14386c-1.30803,-0.00768 -2.34696,-3.66626 -2.32052,-8.17166z" data-paper-data="{&quot;index&quot;:null}" fill="#000000" stroke="#000000" stroke-width="5"/><path d="M235.61693,188.17224c0,-7.70292 6.24444,-13.94737 13.94736,-13.94737c7.70292,0 13.94737,6.24445 13.94737,13.94737c0,7.70292 -6.24445,13.94736 -13.94737,13.94736c-7.70292,0 -13.94736,-6.24444 -13.94736,-13.94736z" data-paper-data="{&quot;index&quot;:null}" fill="#9ad3ff" stroke="#000000" stroke-width="5"/></g></g></svg>