<svg version="1.1" xmlns="http://www.w3.org/2000/svg" xmlns:xlink="http://www.w3.org/1999/xlink" width="435.87892" height="248.88009" viewBox="0,0,435.87892,248.88009"><g transform="translate(-21.81346,-29.4541)"><g data-paper-data="{&quot;isPaintingLayer&quot;:true}" fill-rule="nonzero" stroke-linecap="butt" stroke-linejoin="miter" stroke-miterlimit="10" stroke-dasharray="" stroke-dashoffset="0" style="mix-blend-mode: normal"><text transform="translate(22.0663,217.8991) scale(0.50566,0.58789)" font-size="40" xml:space="preserve" fill="#000000" fill-rule="nonzero" stroke="none" stroke-width="1" stroke-linecap="butt" stroke-linejoin="miter" stroke-miterlimit="10" stroke-dasharray="" stroke-dashoffset="0" font-family="Pixel" font-weight="normal" text-anchor="start" style="mix-blend-mode: normal"><tspan x="0" dy="0">Juego creado por mi, tutoriales de como </tspan><tspan x="0" dy="46.15px">hacer el juego por griffpatch, música por</tspan><tspan x="0" dy="46.15px">Dynamedion</tspan></text><path d="M420.49968,74.94953c0,23.74572 -19.24971,42.99543 -42.99543,42.99543c-23.74572,0 -42.99543,-19.24971 -42.99543,-42.99543c0,-23.74572 19.24971,-42.99543 42.99543,-42.99543c23.74572,0 42.99543,19.24971 42.99543,42.99543z" fill="#abfff3" stroke="#000000" stroke-width="5"/><path d="M360.88748,71.02233c0,-6.92138 -0.71124,-12.53226 -1.5886,-12.53226c-0.87736,0 -1.5886,5.61088 -1.5886,12.53226c0,6.92138 0.71124,12.53226 1.5886,12.53226c0.87736,0 1.5886,-5.61088 1.5886,-12.53226z" fill="#abfff3" stroke="#000000" stroke-width="5"/><path d="M375.41772,70.31628c0,7.70125 -0.82978,13.94435 -1.85336,13.94435c-1.02358,0 -1.85336,-6.2431 -1.85336,-13.94435c0,-7.70125 0.82978,-13.94435 1.85336,-13.94435c1.02358,0 1.85336,6.2431 1.85336,13.94435z" fill="#abfff3" stroke="#000000" stroke-width="5"/></g></g></svg>