<svg version="1.1" xmlns="http://www.w3.org/2000/svg" xmlns:xlink="http://www.w3.org/1999/xlink" width="89.30468" height="70.39473" viewBox="0,0,89.30468,70.39473"><g transform="translate(-195.64307,-144.38855)"><g data-paper-data="{&quot;isPaintingLayer&quot;:true}" fill-rule="nonzero" stroke-linecap="butt" stroke-linejoin="miter" stroke-miterlimit="10" stroke-dasharray="" stroke-dashoffset="0" style="mix-blend-mode: normal"><path d="M245.48772,180.65192c0,-7.70292 6.24444,-13.94737 13.94736,-13.94737c7.70292,0 13.94737,6.24445 13.94737,13.94737c0,7.70292 -6.24445,13.94736 -13.94737,13.94736c-7.70292,0 -13.94736,-6.24444 -13.94736,-13.94736z" fill="#9966ff" stroke="#000000" stroke-width="5"/><path d="M211.84211,180.00003c0,-15.55117 12.60672,-28.15789 28.15789,-28.15789c15.55118,0 28.15789,12.60672 28.15789,28.15789c0,15.55118 -12.60672,28.15789 -28.15789,28.15789c-15.55117,0 -28.15789,-12.60672 -28.15789,-28.15789z" fill="#9966ff" stroke="#000000" stroke-width="5"/><path d="M237.86546,177.90784c0,4.50548 -1.99469,8.1579 -4.45528,8.1579c-2.46057,0 -4.45526,-3.65242 -4.45526,-8.1579c0,-4.50548 1.99469,-8.15789 4.45526,-8.15789c2.46057,0 4.45528,3.65241 4.45528,8.15789z" fill="#000000" stroke="#000000" stroke-width="5"/><path d="M254.09916,177.95311c0,4.50548 -1.87012,8.1579 -4.17703,8.1579c-2.3069,0 -4.17702,-3.65242 -4.17702,-8.1579c0,-4.50548 1.87012,-8.15789 4.17702,-8.15789c2.30692,0 4.17703,3.65241 4.17703,8.15789z" fill="#000000" stroke="#000000" stroke-width="5"/><path d="M205.27159,179.78701c0,-7.70292 6.24444,-13.94737 13.94736,-13.94737c7.70292,0 13.94737,6.24445 13.94737,13.94737c0,7.70292 -6.24445,13.94736 -13.94737,13.94736c-7.70292,0 -13.94736,-6.24444 -13.94736,-13.94736z" fill="#9966ff" stroke="#000000" stroke-width="5"/><path d="M195.64307,214.78328v-70.39473h89.30468v70.39473z" fill="none" stroke="none" stroke-width="0"/></g></g></svg>