<svg version="1.1" xmlns="http://www.w3.org/2000/svg" xmlns:xlink="http://www.w3.org/1999/xlink" width="550.54547" height="425" viewBox="0,0,550.54547,425"><g transform="translate(36.04546,21.5)"><g data-paper-data="{&quot;isPaintingLayer&quot;:true}" fill-rule="nonzero" stroke-linecap="butt" stroke-linejoin="miter" stroke-miterlimit="10" stroke-dasharray="" stroke-dashoffset="0" style="mix-blend-mode: normal"><path d="M150.07142,-12.00004c0,0 -1.00288,44.51456 -1.14781,55.96694c-0.03386,2.67577 -0.06266,4.95143 -0.06266,4.95143l-166.05976,-0.216l-0.01548,-60.70237z" data-paper-data="{&quot;index&quot;:null}" fill="#a5a5a5" stroke="none" stroke-width="0"/><path d="M480.50004,-21.5v197h-244v-197z" data-paper-data="{&quot;index&quot;:null}" fill="#a5a5a5" stroke="none" stroke-width="0"/><path d="M-36.04546,398.40909v-363h185v363z" fill="#a5a5a5" stroke="none" stroke-width="0"/><path d="M133.5,403.5v-67h357v67z" fill="#a5a5a5" stroke="none" stroke-width="0"/><path d="M438.50001,350.5v-198h76v198z" fill="#a5a5a5" stroke="none" stroke-width="0"/><path d="M236.8218,335.41465v-177.76288h34.67742v177.76288z" fill="#4d4d4d" stroke="#000000" stroke-width="2.5"/><g data-paper-data="{&quot;index&quot;:null}" stroke="#000000"><path d="M290.8171,326.55753c-5.37747,-0.79667 -8.70488,-4.17082 -7.43199,-7.53638c1.27292,-3.36556 6.66411,-5.44806 12.0416,-4.6514c5.37747,0.79666 8.70488,4.17082 7.43199,7.53638c-1.27289,3.36556 -6.66411,5.44806 -12.0416,4.6514z" fill="#9ad3ff" stroke-width="2.5"/><path d="M297.57071,324.20869l-9.68088,-0.60986l1.76506,-4.67181l-17.24906,-2.36353l1.48568,-4.9916l26.51274,3.09096l-1.48568,4.9916z" fill="#404040" stroke-width="2"/><path d="M283.98227,319.43337c1.2198,-3.22512 3.83537,-2.53645 7.35367,-2.01522c3.51827,0.52123 6.607,0.67767 5.3872,3.90277c-1.2198,3.22512 -5.06076,5.41703 -8.57907,4.8958c-3.51827,-0.52123 -5.38161,-3.55824 -4.16181,-6.78334z" fill="#9ad3ff" stroke-width="2.5"/></g><path d="M315.10782,327.72691c-11.15643,0 -20.2005,-5.66035 -20.2005,-12.64274c0,-6.98239 9.04407,-12.64274 20.2005,-12.64274c11.15643,0 20.2005,5.66035 20.2005,12.64274c0,6.98239 -9.04407,12.64274 -20.2005,12.64274z" data-paper-data="{&quot;index&quot;:null}" fill="#9ad3ff" stroke="#000000" stroke-width="2.5"/><path d="M315.2123,308.45963c1.18,0 2.13659,2.44682 2.13659,5.46512c0,3.0183 -0.95658,5.46512 -2.13659,5.46512c-1.18,0 -2.13659,-2.44682 -2.13659,-5.46512c0,-3.0183 0.95658,-5.46512 2.13659,-5.46512z" data-paper-data="{&quot;index&quot;:null}" fill="#000000" stroke="#000000" stroke-width="2.5"/><path d="M305.73701,308.69219c0.97479,0 1.76501,2.16049 1.76501,4.82558c0,2.6651 -0.79021,4.82558 -1.76501,4.82558c-0.97479,0 -1.76501,-2.16049 -1.76501,-4.82558c0,-2.6651 0.79021,-4.82558 1.76501,-4.82558z" data-paper-data="{&quot;index&quot;:null}" fill="#000000" stroke="#000000" stroke-width="2.5"/><path d="M315.77336,327.48872c-5.52607,0 -10.00585,-2.80372 -10.00585,-6.26229c0,-3.45856 4.47977,-6.26229 10.00585,-6.26229c5.52609,0 10.00585,2.80372 10.00585,6.26229c0,3.45857 -4.47977,6.26229 -10.00585,6.26229z" data-paper-data="{&quot;index&quot;:null}" fill="#9ad3ff" stroke="#000000" stroke-width="2.5"/></g></g></svg>