<svg version="1.1" xmlns="http://www.w3.org/2000/svg" xmlns:xlink="http://www.w3.org/1999/xlink" width="550.54546" height="425" viewBox="0,0,550.54546,425"><g transform="translate(36.04546,21.5)"><g data-paper-data="{&quot;isPaintingLayer&quot;:true}" fill-rule="nonzero" stroke-linecap="butt" stroke-linejoin="miter" stroke-miterlimit="10" stroke-dasharray="" stroke-dashoffset="0" style="mix-blend-mode: normal"><path d="M150.07142,-12.00004c0,0 -1.00288,44.51456 -1.14781,55.96694c-0.03386,2.67577 -0.06266,4.95143 -0.06266,4.95143l-166.05976,-0.216l-0.01548,-60.70237z" data-paper-data="{&quot;index&quot;:null}" fill="#a5a5a5" stroke="none" stroke-width="0"/><path d="M480.49999,-21.5v197h-244v-197z" data-paper-data="{&quot;index&quot;:null}" fill="#a5a5a5" stroke="none" stroke-width="0"/><path d="M-36.04546,398.40909v-363h185v363z" fill="#a5a5a5" stroke="none" stroke-width="0"/><path d="M133.5,403.5v-67h357v67z" fill="#a5a5a5" stroke="none" stroke-width="0"/><path d="M438.50001,350.5v-198h76v198z" fill="#a5a5a5" stroke="none" stroke-width="0"/><path d="M341.29236,317.09968c0,-6.98239 5.66035,-12.64274 12.64274,-12.64274c6.98239,0 12.64274,5.66035 12.64274,12.64274c0,6.98239 -5.66035,12.64274 -12.64274,12.64274c-6.98239,0 -12.64274,-5.66035 -12.64274,-12.64274z" fill="#9ad3ff" stroke="#000000" stroke-width="2.5"/><path d="M355.18331,316.66003c0,2.02294 -0.4761,3.66285 -1.06341,3.66285c-0.5873,0 -1.06341,-1.63991 -1.06341,-3.66285c0,-0.96569 0.23594,-2.67273 0.23594,-2.67273l1.57241,0.91363c0,0 0.31847,-0.26384 0.31847,1.7591z" fill="#000000" stroke="#000000" stroke-width="2.5"/><path d="M360.8902,316.30557c0,2.02294 -0.4761,3.66285 -1.06341,3.66285c-0.5873,0 -1.06341,-1.63991 -1.06341,-3.66285c0,-2.02294 0.40123,-1.84187 0.40123,-1.84187l1.47614,-0.9528c0,0 0.24944,1.98887 0.24944,2.79467z" fill="#000000" stroke="#000000" stroke-width="2.5"/><path d="M336.09348,323.12566c0,-3.45857 2.80372,-6.26229 6.26229,-6.26229c3.45857,0 6.26229,2.80373 6.26229,6.26229c0,3.45857 -2.80373,6.26229 -6.26229,6.26229c-3.45857,0 -6.26229,-2.80372 -6.26229,-6.26229z" fill="#9ad3ff" stroke="#000000" stroke-width="2.5"/><path d="M332.04853,332.7833v-31.60685h55.74115v31.60685z" fill="none" stroke="none" stroke-width="0"/><path d="M236.67024,234.8862v-77.08291h34.67742v77.08291z" fill="#4d4d4d" stroke="#000000" stroke-width="2.5"/><g stroke="#000000"><path d="M366.57385,318.86521c0.58093,-3.40943 3.81575,-5.70239 7.22518,-5.12146c3.40943,0.58093 5.70238,3.81575 5.12146,7.22518c-0.58093,3.40943 -3.81575,5.70238 -7.22518,5.12146c-3.40943,-0.58093 -5.70239,-3.81575 -5.12146,-7.22518z" fill="#9ad3ff" stroke-width="2.5"/><path d="M369.72335,317.75534l1.09335,-4.95835l16.4828,3.63458l-1.09335,4.95835l-10.86131,-2.04007l-0.80749,4.73224l-5.81594,-1.80471z" fill="#404040" stroke-width="2"/><path d="M373.36851,326.42996c-2.23067,-0.38008 -3.58771,-3.33673 -3.03103,-6.60388c0.55668,-3.26714 2.39738,-2.65623 4.62804,-2.27615c2.23067,0.38008 4.00661,0.38538 3.44993,3.65254c-0.55668,3.26714 -2.81628,5.60757 -5.04695,5.22749z" fill="#9ad3ff" stroke-width="2.5"/></g></g></g></svg>