<svg version="1.1" xmlns="http://www.w3.org/2000/svg" xmlns:xlink="http://www.w3.org/1999/xlink" width="550.54547" height="425" viewBox="0,0,550.54547,425"><g transform="translate(36.04546,21.5)"><g data-paper-data="{&quot;isPaintingLayer&quot;:true}" fill-rule="nonzero" stroke-linecap="butt" stroke-linejoin="miter" stroke-miterlimit="10" stroke-dasharray="" stroke-dashoffset="0" style="mix-blend-mode: normal"><path d="M150.07142,-12.00004c0,0 -1.00288,44.51456 -1.14781,55.96694c-0.03386,2.67577 -0.06266,4.95143 -0.06266,4.95143l-166.05976,-0.216l-0.01548,-60.70237z" data-paper-data="{&quot;index&quot;:null}" fill="#a5a5a5" stroke="none" stroke-width="0"/><path d="M480.50008,-21.5v197h-244v-197z" data-paper-data="{&quot;index&quot;:null}" fill="#a5a5a5" stroke="none" stroke-width="0"/><path d="M-36.04546,398.40909v-363h185v363z" fill="#a5a5a5" stroke="none" stroke-width="0"/><path d="M133.5,403.5v-67h357v67z" fill="#a5a5a5" stroke="none" stroke-width="0"/><path d="M438.50001,350.5v-198h76v198z" fill="#a5a5a5" stroke="none" stroke-width="0"/><path d="M236.82184,335.41465v-177.76288h34.67742v177.76288z" fill="#4d4d4d" stroke="#000000" stroke-width="2.5"/><g data-paper-data="{&quot;index&quot;:null}" stroke="#000000"><path d="M277.74522,323.98177c-1.78076,-0.79667 -2.88265,-4.17082 -2.46113,-7.53638c0.42153,-3.36556 2.20684,-5.44806 3.9876,-4.6514c1.78076,0.79666 2.88265,4.17082 2.46113,7.53638c-0.42152,3.36556 -2.20684,5.44806 -3.9876,4.6514z" fill="#9ad3ff" stroke-width="2.5"/><path d="M279.9817,321.63293l-3.20585,-0.60986l0.5845,-4.67181l-5.71208,-2.36353l0.49199,-4.9916l8.77977,3.09096l-0.49199,4.9916z" fill="#404040" stroke-width="2"/><path d="M275.48185,316.85761c0.40394,-3.22512 1.27009,-2.53645 2.4352,-2.01522c1.16508,0.52123 2.18792,0.67767 1.78398,3.90277c-0.40394,3.22512 -1.67589,5.41703 -2.84098,4.8958c-1.16508,-0.52123 -1.78214,-3.55824 -1.3782,-6.78334z" fill="#9ad3ff" stroke-width="2.5"/></g><path d="M279.10017,326.96933c-3.69448,0 -6.68946,-5.66035 -6.68946,-12.64274c0,-6.98239 2.99497,-12.64274 6.68946,-12.64274c3.69448,0 6.68946,5.66035 6.68946,12.64274c0,6.98239 -2.99497,12.64274 -6.68946,12.64274z" data-paper-data="{&quot;index&quot;:null}" fill="#9ad3ff" stroke="#000000" stroke-width="2.5"/><path d="M279.13476,307.70205c0.39076,0 0.70754,2.44682 0.70754,5.46512c0,3.0183 -0.31677,5.46512 -0.70754,5.46512c-0.39076,0 -0.70754,-2.44682 -0.70754,-5.46512c0,-3.0183 0.31677,-5.46512 0.70754,-5.46512z" data-paper-data="{&quot;index&quot;:null}" fill="#000000" stroke="#000000" stroke-width="2.5"/><path d="M275.99699,307.93461c0.3228,0 0.58449,2.16049 0.58449,4.82558c0,2.6651 -0.26168,4.82558 -0.58449,4.82558c-0.3228,0 -0.58449,-2.16049 -0.58449,-4.82558c0,-2.6651 0.26168,-4.82558 0.58449,-4.82558z" data-paper-data="{&quot;index&quot;:null}" fill="#000000" stroke="#000000" stroke-width="2.5"/><path d="M279.32056,326.73114c-1.82998,0 -3.31346,-2.80372 -3.31346,-6.26229c0,-3.45856 1.48349,-6.26229 3.31346,-6.26229c1.82999,0 3.31346,2.80372 3.31346,6.26229c0,3.45857 -1.48349,6.26229 -3.31346,6.26229z" data-paper-data="{&quot;index&quot;:null}" fill="#9ad3ff" stroke="#000000" stroke-width="2.5"/></g></g></svg>