<svg version="1.1" xmlns="http://www.w3.org/2000/svg" xmlns:xlink="http://www.w3.org/1999/xlink" width="59.1054" height="63.36402" viewBox="0,0,59.1054,63.36402"><g transform="translate(-200.95969,-151.43064)"><g data-paper-data="{&quot;isPaintingLayer&quot;:true}" fill-rule="nonzero" stroke-linejoin="miter" stroke-miterlimit="10" stroke-dasharray="" stroke-dashoffset="0" style="mix-blend-mode: normal"><path d="M202.46691,213.29372c0,0 -0.00557,-8.89359 -0.00722,-11.53529c-0.00087,-1.38233 1.61207,-3.15949 3.43114,-3.16063c7.04521,-0.00441 51.49689,-0.03223 51.49689,-0.03223l0.0092,14.69378z" fill="#cae9ff" stroke="#000000" stroke-width="3" stroke-linecap="butt"/><path d="M238.00771,192.43086c1.09415,2.79302 1.42764,5.21051 2.50947,7.88711c0.58379,1.44439 2.30058,3.03783 1.55691,4.40678c-0.81322,1.49697 -3.16734,1.32054 -4.84099,1.6386c-2.88347,0.54797 -6.60403,0.00597 -9.57136,0.00784l-2.67784,0.00168c-0.13261,0.00008 -0.26282,-0.01016 -0.38985,-0.02998c-0.49355,0.21354 -2.24221,0.79957 -3.25392,-1.07651c-1.18663,-2.20044 1.01381,-3.38707 1.01381,-3.38707l2.51586,-1.34879c0.34139,-0.25765 4.68121,-3.52202 4.84648,-3.69422c4.36948,-4.55273 3.64591,-11.44268 3.61676,-17.45305c-0.50813,0.00032 -0.97963,0.00061 -1.36244,0.00086c0,0 -2.5,0.00157 -2.50157,-2.49843c-0.00157,-2.5 2.49843,-2.50157 2.49843,-2.50157c1.24945,-0.00078 2.49891,-0.00156 3.74836,-0.00235c0.06979,-0.00232 0.14165,-0.00241 0.21568,-0.00013l0.97967,-0.00061c0,0 2.5,-0.00157 2.50157,2.49843c0.00073,1.15541 -0.53288,1.77716 -1.10707,2.11176c-0.09436,4.26072 0.14427,8.68381 -0.68808,12.78815c0.26746,0.34535 0.39014,0.6515 0.39014,0.6515z" fill="#9966ff" stroke="none" stroke-width="0.5" stroke-linecap="butt"/><path d="M240.02047,167.69351c-0.60137,1.38657 -2.28868,1.38762 -2.28868,1.38762c-1.4015,-0.17246 -3.23577,0.50998 -4.2045,-0.5174c-3.3125,-3.51296 -2.41532,-11.95659 3.56984,-12.30051c7.5276,-0.43254 6.97164,8.76613 2.92335,11.43028z" fill="#9966ff" stroke="none" stroke-width="0.5" stroke-linecap="butt"/><path d="M211.96172,211.09057l-0.03507,-56.02861l47.88491,-0.02997l0.03507,56.02861z" fill="none" stroke="none" stroke-width="0" stroke-linecap="butt"/><path d="M213.24689,213.21831c0,0 -0.03154,-50.39498 -0.03593,-57.40186c-0.00099,-1.57054 1.50352,-2.88477 3.15667,-2.88581c4.87231,-0.00305 29.31939,-0.01835 38.58834,-0.02416c2.22094,-0.00139 3.57136,1.45145 3.57243,3.15624c0.00454,7.25028 0.03576,57.12721 0.03576,57.12721z" fill="#cae9ff" stroke="#000000" stroke-width="3" stroke-linecap="butt"/><path d="M218.22663,161.10034l35.70451,-0.02235" fill="none" stroke="#000000" stroke-width="3" stroke-linecap="round"/><path d="M218.23213,169.88914l35.56717,-0.02226" fill="none" stroke="#000000" stroke-width="3" stroke-linecap="round"/><path d="M253.39214,177.55733l-34.33125,0.02149" fill="none" stroke="#000000" stroke-width="3" stroke-linecap="round"/><path d="M219.75165,184.16999l34.74322,-0.02175" fill="none" stroke="#000000" stroke-width="3" stroke-linecap="round"/><path d="M253.12652,191.97662l-34.88056,0.02184" fill="none" stroke="#000000" stroke-width="3" stroke-linecap="round"/><path d="M253.81684,197.88118l-35.84182,0.02243" fill="none" stroke="#000000" stroke-width="3" stroke-linecap="round"/><path d="M221.27761,208.75023l31.99674,-0.02002" fill="none" stroke="#000000" stroke-width="3" stroke-linecap="round"/><path d="M221.13667,202.98266l30.62348,-0.01917" fill="none" stroke="#000000" stroke-width="3" stroke-linecap="round"/></g></g></svg>