<svg version="1.1" xmlns="http://www.w3.org/2000/svg" xmlns:xlink="http://www.w3.org/1999/xlink" width="89.30468" height="70.39473" viewBox="0,0,89.30468,70.39473"><g transform="translate(-195.64307,-144.38855)"><g data-paper-data="{&quot;isPaintingLayer&quot;:true}" fill-rule="nonzero" stroke-linecap="butt" stroke-linejoin="miter" stroke-miterlimit="10" stroke-dasharray="" stroke-dashoffset="0" style="mix-blend-mode: normal"><path d="M251.05264,192.89475c0,-7.70292 6.24444,-13.94737 13.94736,-13.94737c7.70292,0 13.94737,6.24445 13.94737,13.94737c0,7.70292 -6.24445,13.94736 -13.94737,13.94736c-7.70292,0 -13.94736,-6.24444 -13.94736,-13.94736z" fill="#9966ff" stroke="#000000" stroke-width="5"/><path d="M211.84211,180.00003c0,-15.55117 12.60672,-28.15789 28.15789,-28.15789c15.55118,0 28.15789,12.60672 28.15789,28.15789c0,15.55118 -12.60672,28.15789 -28.15789,28.15789c-15.55117,0 -28.15789,-12.60672 -28.15789,-28.15789z" fill="#9966ff" stroke="#000000" stroke-width="5"/><path d="M242.59565,179.02082c0,4.50548 -1.06038,8.1579 -2.36843,8.1579c-1.30804,0 -2.36842,-3.65242 -2.36842,-8.1579c0,-4.50548 1.06038,-8.15789 2.36842,-8.15789c1.30804,0 2.36843,3.65241 2.36843,8.15789z" fill="#000000" stroke="#000000" stroke-width="5"/><path d="M255.49039,178.23135c0,4.50548 -1.06038,8.1579 -2.36843,8.1579c-1.30804,0 -2.36842,-3.65242 -2.36842,-8.1579c0,-4.50548 1.06038,-8.15789 2.36842,-8.15789c1.30805,0 2.36843,3.65241 2.36843,8.15789z" fill="#000000" stroke="#000000" stroke-width="5"/><path d="M201.0979,193.42107c0,-7.70292 6.24444,-13.94737 13.94736,-13.94737c7.70292,0 13.94737,6.24445 13.94737,13.94737c0,7.70292 -6.24445,13.94736 -13.94737,13.94736c-7.70292,0 -13.94736,-6.24444 -13.94736,-13.94736z" fill="#9966ff" stroke="#000000" stroke-width="5"/><path d="M195.64307,214.78328v-70.39473h89.30468v70.39473z" fill="none" stroke="none" stroke-width="0"/></g></g></svg>