<svg version="1.1" xmlns="http://www.w3.org/2000/svg" xmlns:xlink="http://www.w3.org/1999/xlink" width="550.54547" height="425" viewBox="0,0,550.54547,425"><g transform="translate(36.04546,21.5)"><g data-paper-data="{&quot;isPaintingLayer&quot;:true}" fill-rule="nonzero" stroke-linecap="butt" stroke-linejoin="miter" stroke-miterlimit="10" stroke-dasharray="" stroke-dashoffset="0" style="mix-blend-mode: normal"><path d="M150.07142,-12.00004c0,0 -1.00288,44.51456 -1.14781,55.96694c-0.03386,2.67577 -0.06266,4.95143 -0.06266,4.95143l-166.05976,-0.216l-0.01548,-60.70237z" data-paper-data="{&quot;index&quot;:null}" fill="#a5a5a5" stroke="none" stroke-width="0"/><path d="M480.5001,-21.5v197h-244v-197z" data-paper-data="{&quot;index&quot;:null}" fill="#a5a5a5" stroke="none" stroke-width="0"/><path d="M-36.04546,398.40909v-363h185v363z" fill="#a5a5a5" stroke="none" stroke-width="0"/><path d="M133.5,403.5v-67h357v67z" fill="#a5a5a5" stroke="none" stroke-width="0"/><path d="M438.50001,350.5v-198h76v198z" fill="#a5a5a5" stroke="none" stroke-width="0"/><path d="M236.82186,335.41465v-177.76288h34.67742v177.76288z" fill="#4d4d4d" stroke="#000000" stroke-width="2.5"/><g data-paper-data="{&quot;index&quot;:null}" stroke="#000000"><path d="M284.5364,323.49157c-3.07706,-0.79667 -4.98106,-4.17082 -4.2527,-7.53638c0.72837,-3.36556 3.8133,-5.44806 6.89035,-4.6514c3.07706,0.79666 4.98106,4.17082 4.2527,7.53638c-0.72836,3.36556 -3.8133,5.44806 -6.89035,4.6514z" fill="#9ad3ff" stroke-width="2.5"/><path d="M288.40092,321.14273l-5.53953,-0.60986l1.00998,-4.67181l-9.87015,-2.36353l0.85014,-4.9916l15.17095,3.09096l-0.85014,4.9916z" fill="#404040" stroke-width="2"/><path d="M280.62544,316.36741c0.69798,-3.22512 2.19464,-2.53645 4.2079,-2.01522c2.0132,0.52123 3.7806,0.67767 3.08262,3.90277c-0.69798,3.22512 -2.89585,5.41703 -4.90905,4.8958c-2.0132,-0.52123 -3.07944,-3.55824 -2.38145,-6.78334z" fill="#9ad3ff" stroke-width="2.5"/></g><path d="M286.87768,326.47913c-6.38386,0 -11.55902,-5.66035 -11.55902,-12.64274c0,-6.98239 5.17514,-12.64274 11.55902,-12.64274c6.38386,0 11.55902,5.66035 11.55902,12.64274c0,6.98239 -5.17514,12.64274 -11.55902,12.64274z" data-paper-data="{&quot;index&quot;:null}" fill="#9ad3ff" stroke="#000000" stroke-width="2.5"/><path d="M286.93746,307.21185c0.67521,0 1.22259,2.44682 1.22259,5.46512c0,3.0183 -0.54736,5.46512 -1.22259,5.46512c-0.67521,0 -1.22259,-2.44682 -1.22259,-5.46512c0,-3.0183 0.54736,-5.46512 1.22259,-5.46512z" data-paper-data="{&quot;index&quot;:null}" fill="#000000" stroke="#000000" stroke-width="2.5"/><path d="M281.51557,307.44441c0.55779,0 1.00997,2.16049 1.00997,4.82558c0,2.6651 -0.45217,4.82558 -1.00997,4.82558c-0.55779,0 -1.00997,-2.16049 -1.00997,-4.82558c0,-2.6651 0.45217,-4.82558 1.00997,-4.82558z" data-paper-data="{&quot;index&quot;:null}" fill="#000000" stroke="#000000" stroke-width="2.5"/><path d="M287.25851,326.24094c-3.1621,0 -5.72548,-2.80372 -5.72548,-6.26229c0,-3.45856 2.56339,-6.26229 5.72548,-6.26229c3.16213,0 5.72548,2.80372 5.72548,6.26229c0,3.45857 -2.56339,6.26229 -5.72548,6.26229z" data-paper-data="{&quot;index&quot;:null}" fill="#9ad3ff" stroke="#000000" stroke-width="2.5"/></g></g></svg>