<svg version="1.1" xmlns="http://www.w3.org/2000/svg" xmlns:xlink="http://www.w3.org/1999/xlink" width="77.5486" height="82.16389" viewBox="0,0,77.5486,82.16389"><g transform="translate(-200.57404,-137.5402)"><g data-paper-data="{&quot;isPaintingLayer&quot;:true}" fill="#ff6d6d" fill-rule="nonzero" stroke-linecap="butt" stroke-linejoin="miter" stroke-miterlimit="10" stroke-dasharray="" stroke-dashoffset="0" style="mix-blend-mode: normal"><path d="M228.06565,211.85604c0,0 23.78242,9.7706 27.60095,-2.58925c3.06541,-9.92216 1.15482,-22.91073 2.33291,-28.47986c3.03142,-14.33028 -18.37028,-9.55961 -18.37028,-9.55961c0,0 -13.785,-26.53096 -17.50161,-17.50161c25.48026,-15.31122 56.71897,9.83416 53.2262,17.21779c-1.02081,11.19376 -1.45577,12.42785 -2.52147,17.24611c-1.97213,8.91651 0.18308,0.93625 -13.20128,25.2291c-8.64077,9.34903 -31.56541,-1.56264 -31.56541,-1.56264z" stroke="#ff0000" stroke-width="5"/><path d="M247.5805,182.15597l-43.20314,0.92428l17.00273,-40.28433z" stroke="#ff0000" stroke-width="5"/><path d="M225.49869,175.05758l-2.20242,-19.95627l12.454,-3.76304l8.12418,15.5627z" stroke="none" stroke-width="0"/></g></g></svg>