<svg version="1.1" xmlns="http://www.w3.org/2000/svg" xmlns:xlink="http://www.w3.org/1999/xlink" width="550.54547" height="425" viewBox="0,0,550.54547,425"><g transform="translate(36.04546,21.5)"><g data-paper-data="{&quot;isPaintingLayer&quot;:true}" fill-rule="nonzero" stroke-linecap="butt" stroke-linejoin="miter" stroke-miterlimit="10" stroke-dasharray="" stroke-dashoffset="0" style="mix-blend-mode: normal"><g stroke="#000000"><path d="M362.03757,320.39196c1.57256,-3.08038 5.34451,-4.30272 8.42489,-2.73016c3.08038,1.57256 4.30271,5.34451 2.73016,8.42489c-1.57256,3.08038 -5.34451,4.30271 -8.42489,2.73016c-3.08038,-1.57256 -4.30272,-5.34451 -2.73016,-8.42489z" fill="#9ad3ff" stroke-width="2.5"/><path d="M365.37479,320.27325l2.52414,-4.40561l14.64533,8.39089l-2.52414,4.40561l-9.75651,-5.19043l-2.1838,4.27518l-5.01164,-3.45914z" fill="#404040" stroke-width="2"/><path d="M366.26318,329.64059c-2.01539,-1.02887 -2.42758,-4.25585 -0.92065,-7.20769c1.50692,-2.95183 3.0812,-1.81911 5.09658,-0.79025c2.01539,1.02887 3.70871,1.56426 2.20178,4.51611c-1.50692,2.95183 -4.36233,4.51069 -6.37771,3.48183z" fill="#9ad3ff" stroke-width="2.5"/></g><path d="M150.07142,-12.00004c0,0 -1.00288,44.51456 -1.14781,55.96694c-0.03386,2.67577 -0.06266,4.95143 -0.06266,4.95143l-166.05976,-0.216l-0.01548,-60.70237z" data-paper-data="{&quot;index&quot;:null}" fill="#a5a5a5" stroke="none" stroke-width="0"/><path d="M480.50001,-21.5v197h-244v-197z" data-paper-data="{&quot;index&quot;:null}" fill="#a5a5a5" stroke="none" stroke-width="0"/><path d="M-36.04546,398.40909v-363h185v363z" fill="#a5a5a5" stroke="none" stroke-width="0"/><path d="M133.5,403.5v-67h357v67z" fill="#a5a5a5" stroke="none" stroke-width="0"/><path d="M438.50001,350.5v-198h76v198z" fill="#a5a5a5" stroke="none" stroke-width="0"/><path d="M341.29236,317.09968c0,-6.98239 5.66035,-12.64274 12.64274,-12.64274c6.98239,0 12.64274,5.66035 12.64274,12.64274c0,6.98239 -5.66035,12.64274 -12.64274,12.64274c-6.98239,0 -12.64274,-5.66035 -12.64274,-12.64274z" fill="#9ad3ff" stroke="#000000" stroke-width="2.5"/><path d="M355.18333,316.66003c0,2.02294 -0.4761,3.66285 -1.06341,3.66285c-0.5873,0 -1.06341,-1.63991 -1.06341,-3.66285c0,-0.71591 0.23594,-1.80117 0.23594,-1.80117l1.57241,0.04207c0,0 0.31847,-0.26384 0.31847,1.7591z" fill="#000000" stroke="#000000" stroke-width="2.5"/><path d="M360.89022,316.30557c0,2.02294 -0.4761,3.66285 -1.06341,3.66285c-0.5873,0 -1.06341,-1.63991 -1.06341,-3.66285c0,-2.02294 0.40123,-1.4749 0.40123,-1.4749l1.47614,-0.08124c0,0 0.24944,0.75034 0.24944,1.55614z" fill="#000000" stroke="#000000" stroke-width="2.5"/><path d="M336.09349,323.12566c0,-3.45857 2.80372,-6.26229 6.26229,-6.26229c3.45857,0 6.26229,2.80373 6.26229,6.26229c0,3.45857 -2.80373,6.26229 -6.26229,6.26229c-3.45857,0 -6.26229,-2.80372 -6.26229,-6.26229z" fill="#9ad3ff" stroke="#000000" stroke-width="2.5"/><path d="M332.04855,332.7833v-31.60685h55.74115v31.60685z" fill="none" stroke="none" stroke-width="0"/><path d="M236.67026,270.34193v-112.53864h34.67742v112.53864z" fill="#4d4d4d" stroke="#000000" stroke-width="2.5"/></g></g></svg>