<svg version="1.1" xmlns="http://www.w3.org/2000/svg" xmlns:xlink="http://www.w3.org/1999/xlink" width="550.54547" height="425.09804" viewBox="0,0,550.54547,425.09804"><g transform="translate(36.04545,21.5)"><g data-paper-data="{&quot;isPaintingLayer&quot;:true}" fill-rule="nonzero" stroke-linecap="butt" stroke-linejoin="miter" stroke-miterlimit="10" stroke-dasharray="" stroke-dashoffset="0" style="mix-blend-mode: normal"><path d="M150.07143,-12.00004c0,0 -1.00288,44.51456 -1.14781,55.96694c-0.03386,2.67577 -0.06266,4.95143 -0.06266,4.95143l-166.05976,-0.216l-0.01548,-60.70237z" data-paper-data="{&quot;index&quot;:null}" fill="#a5a5a5" stroke="none" stroke-width="0"/><path d="M480.50017,-21.5v197h-244v-197z" data-paper-data="{&quot;index&quot;:null}" fill="#a5a5a5" stroke="none" stroke-width="0"/><path d="M-36.04545,398.40909v-363h185v363z" fill="#a5a5a5" stroke="none" stroke-width="0"/><path d="M132.81374,403.59804v-67h357v67z" fill="#a5a5a5" stroke="none" stroke-width="0"/><path d="M438.50002,350.5v-198h76v198z" fill="#a5a5a5" stroke="none" stroke-width="0"/><path d="M236.82188,335.41465v-177.76288h34.67742v177.76288z" fill="#4d4d4d" stroke="#000000" stroke-width="2.5"/><g data-paper-data="{&quot;index&quot;:null}" stroke="#000000"><path d="M348.50751,327.66296c-1.92332,-2.89921 -1.14374,-6.79591 1.74124,-8.70353c2.885,-1.90761 6.78292,-1.10376 8.70624,1.79542c1.92333,2.8992 1.14374,6.79591 -1.74124,8.70353c-2.88498,1.90762 -6.78292,1.10376 -8.70624,-1.79542z" fill="#9ad3ff" stroke-width="2.5"/><path d="M353.21277,328.85966l-4.02605,-4.61771l4.00385,-2.64882l-6.30055,-9.15959l4.09427,-3.00261l10.05474,13.68328l-4.09427,3.00261z" fill="#404040" stroke-width="2"/><path d="M350.24104,319.51769c2.76461,-1.82801 3.4942,-0.19805 4.75261,1.69883c1.25835,1.89684 2.56894,3.34229 -0.19565,5.17029c-2.76461,1.82801 -6.02587,1.77218 -7.28422,-0.12466c-1.25835,-1.89684 -0.03733,-4.91645 2.72727,-6.74443z" fill="#9ad3ff" stroke-width="2.5"/></g><path d="M348.34293,331.6069c-5.12016,-4.80861 -5.40129,-12.83781 -0.6279,-17.9337c4.77339,-5.0959 12.79371,-5.32878 17.91388,-0.52017c5.12016,4.80861 5.40129,12.83781 0.6279,17.9337c-4.77339,5.0959 -12.79371,5.32878 -17.91388,0.52017z" data-paper-data="{&quot;index&quot;:null}" fill="#9ad3ff" stroke="#000000" stroke-width="2.5"/><path d="M361.56263,317.59028c0.54155,0.5086 -0.69215,2.70665 -2.75556,4.90946c-2.06341,2.20282 -4.17515,3.57626 -4.71671,3.06766c-0.54155,-0.5086 0.69215,-2.70665 2.75556,-4.90946c2.06341,-2.20282 4.17515,-3.57626 4.71671,-3.06766z" data-paper-data="{&quot;index&quot;:null}" fill="#000000" stroke="#000000" stroke-width="2.5"/><path d="M357.05503,313.676c0.44737,0.42015 -0.66693,2.33753 -2.48888,4.28257c-1.82195,1.94504 -3.66159,3.18122 -4.10898,2.76105c-0.44737,-0.42015 0.66693,-2.33753 2.48888,-4.28257c1.82195,-1.94504 3.66159,-3.18122 4.10898,-2.76105z" data-paper-data="{&quot;index&quot;:null}" fill="#000000" stroke="#000000" stroke-width="2.5"/><path d="M348.81121,331.71992c-2.53616,-2.38183 -2.6754,-6.3589 -0.31101,-8.88304c2.36439,-2.52413 6.33707,-2.63949 8.87322,-0.25766c2.53618,2.38186 2.6754,6.3589 0.31101,8.88304c-2.3644,2.52414 -6.33707,2.63949 -8.87322,0.25766z" data-paper-data="{&quot;index&quot;:null}" fill="#9ad3ff" stroke="#000000" stroke-width="2.5"/></g></g></svg>