<svg version="1.1" xmlns="http://www.w3.org/2000/svg" xmlns:xlink="http://www.w3.org/1999/xlink" width="550.54547" height="425" viewBox="0,0,550.54547,425"><g transform="translate(36.04546,21.5)"><g data-paper-data="{&quot;isPaintingLayer&quot;:true}" fill-rule="nonzero" stroke-linecap="butt" stroke-linejoin="miter" stroke-miterlimit="10" stroke-dasharray="" stroke-dashoffset="0" style="mix-blend-mode: normal"><path d="M150.07142,-12.00004c0,0 -1.00288,44.51456 -1.14781,55.96694c-0.03386,2.67577 -0.06266,4.95143 -0.06266,4.95143l-166.05976,-0.216l-0.01548,-60.70237z" data-paper-data="{&quot;index&quot;:null}" fill="#a5a5a5" stroke="none" stroke-width="0"/><path d="M480.50005,-21.5v197h-244v-197z" data-paper-data="{&quot;index&quot;:null}" fill="#a5a5a5" stroke="none" stroke-width="0"/><path d="M-36.04546,398.40909v-363h185v363z" fill="#a5a5a5" stroke="none" stroke-width="0"/><path d="M133.5,403.5v-67h357v67z" fill="#a5a5a5" stroke="none" stroke-width="0"/><path d="M438.50001,350.5v-198h76v198z" fill="#a5a5a5" stroke="none" stroke-width="0"/><path d="M236.82181,335.41465v-177.76288h34.67742v177.76288z" fill="#4d4d4d" stroke="#000000" stroke-width="2.5"/><g data-paper-data="{&quot;index&quot;:null}" stroke="#000000"><path d="M279.56277,323.98177c-2.31163,-0.79667 -3.742,-4.17082 -3.19482,-7.53638c0.54719,-3.36556 2.86472,-5.44806 5.17636,-4.6514c2.31163,0.79666 3.742,4.17082 3.19482,7.53638c-0.54718,3.36556 -2.86472,5.44806 -5.17636,4.6514z" fill="#9ad3ff" stroke-width="2.5"/><path d="M282.46597,321.63293l-4.16155,-0.60986l0.75875,-4.67181l-7.41491,-2.36353l0.63865,-4.9916l11.39712,3.09096l-0.63865,4.9916z" fill="#404040" stroke-width="2"/><path d="M276.62466,316.85761c0.52436,-3.22512 1.64872,-2.53645 3.16115,-2.01522c1.51241,0.52123 2.84017,0.67767 2.31581,3.90277c-0.52436,3.22512 -2.17549,5.41703 -3.68791,4.8958c-1.51241,-0.52123 -2.31341,-3.55824 -1.78905,-6.78334z" fill="#9ad3ff" stroke-width="2.5"/></g><path d="M281.32164,326.96933c-4.79585,0 -8.68366,-5.66035 -8.68366,-12.64274c0,-6.98239 3.88781,-12.64274 8.68366,-12.64274c4.79585,0 8.68366,5.66035 8.68366,12.64274c0,6.98239 -3.88781,12.64274 -8.68366,12.64274z" data-paper-data="{&quot;index&quot;:null}" fill="#9ad3ff" stroke="#000000" stroke-width="2.5"/><path d="M281.36655,307.70205c0.50725,0 0.91846,2.44682 0.91846,5.46512c0,3.0183 -0.41121,5.46512 -0.91846,5.46512c-0.50725,0 -0.91846,-2.44682 -0.91846,-5.46512c0,-3.0183 0.41121,-5.46512 0.91846,-5.46512z" data-paper-data="{&quot;index&quot;:null}" fill="#000000" stroke="#000000" stroke-width="2.5"/><path d="M277.29337,307.93461c0.41904,0 0.75873,2.16049 0.75873,4.82558c0,2.6651 -0.33969,4.82558 -0.75873,4.82558c-0.41904,0 -0.75873,-2.16049 -0.75873,-4.82558c0,-2.6651 0.33969,-4.82558 0.75873,-4.82558z" data-paper-data="{&quot;index&quot;:null}" fill="#000000" stroke="#000000" stroke-width="2.5"/><path d="M281.60773,326.73114c-2.37551,0 -4.30125,-2.80372 -4.30125,-6.26229c0,-3.45856 1.92573,-6.26229 4.30125,-6.26229c2.37552,0 4.30125,2.80372 4.30125,6.26229c0,3.45857 -1.92573,6.26229 -4.30125,6.26229z" data-paper-data="{&quot;index&quot;:null}" fill="#9ad3ff" stroke="#000000" stroke-width="2.5"/></g></g></svg>