<svg version="1.1" xmlns="http://www.w3.org/2000/svg" xmlns:xlink="http://www.w3.org/1999/xlink" width="550.54547" height="425.09804" viewBox="0,0,550.54547,425.09804"><g transform="translate(36.04546,21.5)"><g data-paper-data="{&quot;isPaintingLayer&quot;:true}" fill-rule="nonzero" stroke-linecap="butt" stroke-linejoin="miter" stroke-miterlimit="10" stroke-dasharray="" stroke-dashoffset="0" style="mix-blend-mode: normal"><path d="M150.07142,-12.00004c0,0 -1.00288,44.51456 -1.14781,55.96694c-0.03386,2.67577 -0.06266,4.95143 -0.06266,4.95143l-166.05976,-0.216l-0.01548,-60.70237z" data-paper-data="{&quot;index&quot;:null}" fill="#a5a5a5" stroke="none" stroke-width="0"/><path d="M480.50016,-21.5v197h-244v-197z" data-paper-data="{&quot;index&quot;:null}" fill="#a5a5a5" stroke="none" stroke-width="0"/><path d="M-36.04546,398.40909v-363h185v363z" fill="#a5a5a5" stroke="none" stroke-width="0"/><path d="M132.81373,403.59804v-67h357v67z" fill="#a5a5a5" stroke="none" stroke-width="0"/><path d="M438.50001,350.5v-198h76v198z" fill="#a5a5a5" stroke="none" stroke-width="0"/><path d="M236.82187,335.41465v-177.76288h34.67742v177.76288z" fill="#4d4d4d" stroke="#000000" stroke-width="2.5"/><g data-paper-data="{&quot;index&quot;:null}" stroke="#000000"><path d="M343.6228,332.09994c-3.62194,-1.23764 -5.51934,-4.86407 -4.23797,-8.09986c1.28139,-3.23579 5.25634,-4.85561 8.87826,-3.61799c3.62194,1.23763 5.51934,4.86407 4.23797,8.09986c-1.28137,3.23579 -5.25634,4.85561 -8.87826,3.61799z" fill="#9ad3ff" stroke-width="2.5"/><path d="M348.57124,330.32885l-6.61881,-1.40961l1.77741,-4.49183l-11.64082,-3.77938l1.62248,-4.83254l17.95722,5.27107l-1.62248,4.83254z" fill="#404040" stroke-width="2"/><path d="M339.74846,324.45896c1.22792,-3.10077 2.95367,-2.19976 5.32344,-1.39002c2.36969,0.80974 4.48598,1.22161 3.25807,4.32236c-1.22792,3.10077 -4.14439,4.95798 -6.51408,4.14824c-2.36969,-0.80974 -3.29533,-3.97983 -2.0674,-7.08057z" fill="#9ad3ff" stroke-width="2.5"/></g><path d="M346.09454,335.40602c-7.71149,-0.92667 -13.28758,-7.2978 -12.45452,-14.23032c0.83306,-6.93252 7.75979,-11.80122 15.4713,-10.87455c7.71149,0.92667 13.28758,7.2978 12.45452,14.23032c-0.83306,6.93252 -7.75979,11.80122 -15.4713,10.87455z" data-paper-data="{&quot;index&quot;:null}" fill="#9ad3ff" stroke="#000000" stroke-width="2.5"/><path d="M348.46552,316.28504c0.81563,0.09801 1.18492,2.60681 0.82481,5.60355c-0.36011,2.99674 -1.31323,5.34663 -2.12888,5.24862c-0.81563,-0.09801 -1.18492,-2.60681 -0.82481,-5.60355c0.36011,-2.99674 1.31323,-5.34663 2.12888,-5.24862z" data-paper-data="{&quot;index&quot;:null}" fill="#000000" stroke="#000000" stroke-width="2.5"/><path d="M341.88831,315.72891c0.67379,0.08097 0.96225,2.29166 0.64428,4.93772c-0.31797,2.64606 -1.12194,4.72548 -1.79575,4.64451c-0.67379,-0.08097 -0.96225,-2.29166 -0.64428,-4.93772c0.31797,-2.64606 1.12194,-4.72548 1.79575,-4.64451z" data-paper-data="{&quot;index&quot;:null}" fill="#000000" stroke="#000000" stroke-width="2.5"/><path d="M346.58299,335.22481c-3.81971,-0.459 -6.58168,-3.61479 -6.16905,-7.04866c0.41264,-3.43386 3.84364,-5.84546 7.66334,-5.38646c3.81975,0.45901 6.58168,3.61479 6.16905,7.04866c-0.41264,3.43387 -3.84364,5.84546 -7.66334,5.38646z" data-paper-data="{&quot;index&quot;:null}" fill="#9ad3ff" stroke="#000000" stroke-width="2.5"/></g></g></svg>