<svg version="1.1" xmlns="http://www.w3.org/2000/svg" xmlns:xlink="http://www.w3.org/1999/xlink" width="89.30468" height="70.39473" viewBox="0,0,89.30468,70.39473"><g transform="translate(-195.64307,-144.38855)"><g data-paper-data="{&quot;isPaintingLayer&quot;:true}" fill-rule="nonzero" stroke-linecap="butt" stroke-linejoin="miter" stroke-miterlimit="10" stroke-dasharray="" stroke-dashoffset="0" style="mix-blend-mode: normal"><path d="M203.88036,182.01298c0,-7.70292 6.24444,-13.94737 13.94736,-13.94737c7.70292,0 13.94737,6.24445 13.94737,13.94737c0,7.70292 -6.24445,13.94736 -13.94737,13.94736c-7.70292,0 -13.94736,-6.24444 -13.94736,-13.94736z" fill="#9966ff" stroke="#000000" stroke-width="5"/><path d="M237.97507,179.81718c0,-7.70292 6.24444,-13.94737 13.94736,-13.94737c7.70292,0 13.94737,6.24445 13.94737,13.94737c0,7.70292 -6.24445,13.94736 -13.94737,13.94736c-7.70292,0 -13.94736,-6.24444 -13.94736,-13.94736z" fill="#9966ff" stroke="#000000" stroke-width="5"/><path d="M211.84211,180.00003c0,-15.55117 12.60672,-28.15789 28.15789,-28.15789c15.55118,0 28.15789,12.60672 28.15789,28.15789c0,15.55118 -12.60672,28.15789 -28.15789,28.15789c-15.55117,0 -28.15789,-12.60672 -28.15789,-28.15789z" fill="#9966ff" stroke="#000000" stroke-width="5"/><path d="M247.04759,165.10857c0,6.65684 -5.54508,12.05329 -12.38531,12.05329c-6.84018,0 -12.38526,-5.39645 -12.38526,-12.05329c0,-6.65684 5.54508,-12.05328 12.38526,-12.05328c6.84018,0 12.38531,5.39643 12.38531,12.05328z" fill="#000000" stroke="#000000" stroke-width="5"/><path d="M266.34199,163.48431c0,4.50548 -3.36502,8.1579 -7.516,8.1579c-4.15095,0 -7.51596,-3.65242 -7.51596,-8.1579c0,-4.50548 3.36502,-8.15789 7.51596,-8.15789c4.15098,0 7.516,3.65241 7.516,8.15789z" fill="#000000" stroke="#000000" stroke-width="5"/><path d="M195.64307,214.78328v-70.39473h89.30468v70.39473z" fill="none" stroke="none" stroke-width="0"/><path d="M261.85914,202.25011c1.51278,6.35047 -7.76063,10.33283 -14.03394,10.33283c-8.45945,0 -15.31719,-7.72703 -15.31719,-17.2588c0,-9.53177 6.85774,-17.2588 15.31719,-17.2588c6.60532,0 15.92311,4.54244 14.3842,11.31377c-1.23021,5.41304 -1.03515,9.99594 -0.35027,12.871z" fill="#000000" stroke="#000000" stroke-width="3.5"/></g></g></svg>