<svg version="1.1" xmlns="http://www.w3.org/2000/svg" xmlns:xlink="http://www.w3.org/1999/xlink" width="110.07044" height="91.37922" viewBox="0,0,110.07044,91.37922"><g transform="translate(-175.54247,-137.2741)"><g data-paper-data="{&quot;isPaintingLayer&quot;:true}" fill-rule="nonzero" stroke-linecap="butt" stroke-linejoin="miter" stroke-miterlimit="10" stroke-dasharray="" stroke-dashoffset="0" style="mix-blend-mode: normal"><g data-paper-data="{&quot;index&quot;:null}" stroke="#000000"><path d="M223.63086,204.74298c-3.57106,6.82514 -11.99883,9.46309 -18.82397,5.89203c-6.82514,-3.57106 -9.46309,-11.99884 -5.89203,-18.82398c3.57106,-6.82514 11.99884,-9.46308 18.82398,-5.89202c6.82514,3.57106 9.46308,11.99883 5.89202,18.82397z" fill="#9ad3ff" stroke-width="5"/><path d="M220.88722,194.32847l-4.64976,12.74059l-9.47478,-4.95449l-11.04055,21.99822l-10.26113,-4.75306l15.80038,-34.11061l10.26113,4.75306z" fill="#404040" stroke-width="4"/><path d="M205.90214,210.05528c-6.5403,-3.42203 -4.15339,-6.57604 -1.81697,-11.04149c2.33641,-4.46544 3.73758,-8.55135 10.27788,-5.12932c6.5403,3.42203 9.94821,9.81609 7.6118,14.28153c-2.33641,4.46544 -9.53242,5.3113 -16.07271,1.88928z" fill="#9ad3ff" stroke-width="5"/></g><path d="M175.54247,228.65332v-91.37922h110.07044v91.37922z" data-paper-data="{&quot;index&quot;:null}" fill="none" stroke="none" stroke-width="0"/><path d="M230.74845,206.91959c-15.55117,0 -28.15789,-12.60671 -28.15789,-28.15789c0,-15.55117 12.60671,-28.15789 28.15789,-28.15789c15.55117,0 28.15789,12.60672 28.15789,28.15789c0,15.55117 -12.60672,28.15789 -28.15789,28.15789z" data-paper-data="{&quot;index&quot;:null}" fill="#9ad3ff" stroke="#000000" stroke-width="5"/><path d="M240.7112,170.22373c0.02644,-4.5054 1.10824,-8.15152 2.41626,-8.14385c1.30802,0.00767 2.34695,3.66624 2.32051,8.17164c-0.02644,4.5054 -1.10823,8.15153 -2.41625,8.14386c-1.30803,-0.00768 -2.34696,-3.66626 -2.32052,-8.17166z" data-paper-data="{&quot;index&quot;:null}" fill="#000000" stroke="#000000" stroke-width="5"/><path d="M243.54393,163.28515c0,-7.70292 6.24444,-13.94737 13.94736,-13.94737c7.70292,0 13.94737,6.24445 13.94737,13.94737c0,7.70292 -6.24445,13.94736 -13.94737,13.94736c-7.70292,0 -13.94736,-6.24444 -13.94736,-13.94736z" data-paper-data="{&quot;index&quot;:null}" fill="#9ad3ff" stroke="#000000" stroke-width="5"/><path d="M233.19387,170.72514c0,4.50548 -1.06038,8.1579 -2.36843,8.1579c-1.30804,0 -2.36842,-3.65242 -2.36842,-8.1579c0,-2.15079 1.28823,-8.69857 1.28823,-8.69857l2.73933,4.78071c0,0 0.70929,-0.58761 0.70929,3.91787z" fill="#000000" stroke="#000000" stroke-width="5"/></g></g></svg>