<svg version="1.1" xmlns="http://www.w3.org/2000/svg" xmlns:xlink="http://www.w3.org/1999/xlink" width="83.92155" height="77.57223" viewBox="0,0,83.92155,77.57223"><g transform="translate(-196.47124,-140.10966)"><g data-paper-data="{&quot;isPaintingLayer&quot;:true}" fill-rule="nonzero" stroke-linecap="butt" stroke-linejoin="miter" stroke-miterlimit="10" stroke-dasharray="" stroke-dashoffset="0" style="mix-blend-mode: normal"><path d="M207.92764,209.40016v-62.80314h64.45948v62.80314z" fill="#9ad3ff" stroke="#000000" stroke-width="5"/><path d="M242.59565,179.02084c0,4.50548 -1.06038,8.1579 -2.36843,8.1579c-1.30804,0 -2.36842,-3.65242 -2.36842,-8.1579c0,-4.50548 1.06038,-8.15789 2.36842,-8.15789c1.30804,0 2.36843,3.65241 2.36843,8.15789z" fill="#000000" stroke="#000000" stroke-width="5"/><path d="M255.49039,178.23137c0,4.50548 -1.06038,8.1579 -2.36843,8.1579c-1.30804,0 -2.36842,-3.65242 -2.36842,-8.1579c0,-4.50548 1.06038,-8.15789 2.36842,-8.15789c1.30805,0 2.36843,3.65241 2.36843,8.15789z" fill="#000000" stroke="#000000" stroke-width="5"/><path d="M196.47124,217.68189v-77.57223h83.92155v77.57223z" fill="none" stroke="none" stroke-width="0"/></g></g></svg>