<svg version="1.1" xmlns="http://www.w3.org/2000/svg" xmlns:xlink="http://www.w3.org/1999/xlink" width="97.19116" height="80.68699" viewBox="0,0,97.19116,80.68699"><g transform="translate(-188.99886,-139.00544)"><g data-paper-data="{&quot;isPaintingLayer&quot;:true}" fill-rule="nonzero" stroke-linecap="butt" stroke-linejoin="miter" stroke-miterlimit="10" stroke-dasharray="" stroke-dashoffset="0" style="mix-blend-mode: normal"><path d="M264.84263,194.78844c-7.70292,0 -13.94737,-6.24444 -13.94737,-13.94736c0,-7.70292 6.24445,-13.94737 13.94737,-13.94737c7.70292,0 13.94736,6.24445 13.94736,13.94737c0,7.70292 -6.24444,13.94736 -13.94736,13.94736z" data-paper-data="{&quot;index&quot;:null}" fill="#9ad3ff" stroke="#000000" stroke-width="5"/><path d="M214.72136,178.60037c0,-15.55117 12.60672,-28.15789 28.15789,-28.15789c15.55118,0 28.15789,12.60672 28.15789,28.15789c0,15.55118 -12.60672,28.15789 -28.15789,28.15789c-15.55117,0 -28.15789,-12.60672 -28.15789,-28.15789z" fill="#9ad3ff" stroke="#000000" stroke-width="5"/><path d="M245.33926,177.64511c0.02644,4.5054 -1.01249,8.16398 -2.32052,8.17166c-1.30802,0.00767 -2.38981,-3.63846 -2.41625,-8.14386c-0.02644,-4.5054 1.01249,-8.16397 2.32051,-8.17164c1.30802,-0.00767 2.38982,3.63845 2.41626,8.14385z" fill="#000000" stroke="#000000" stroke-width="5"/><path d="M258.22916,176.77999c0.02644,4.5054 -1.01249,8.16398 -2.32052,8.17166c-1.30802,0.00767 -2.38981,-3.63846 -2.41625,-8.14386c-0.02644,-4.5054 1.01249,-8.16397 2.32051,-8.17164c1.30803,-0.00768 2.38982,3.63845 2.41626,8.14385z" fill="#000000" stroke="#000000" stroke-width="5"/><path d="M188.99886,219.69242v-80.68699h97.19116v80.68699z" fill="none" stroke="none" stroke-width="0"/><path d="M211.29258,208.47909c-7.70292,0 -13.94737,-6.24444 -13.94737,-13.94736c0,-7.70292 6.24445,-13.94737 13.94737,-13.94737c7.70292,0 13.94736,6.24445 13.94736,13.94737c0,7.70292 -6.24444,13.94736 -13.94736,13.94736z" data-paper-data="{&quot;index&quot;:null}" fill="#9ad3ff" stroke="#000000" stroke-width="5"/></g></g></svg>