<svg version="1.1" xmlns="http://www.w3.org/2000/svg" xmlns:xlink="http://www.w3.org/1999/xlink" width="161.63158" height="74" viewBox="0,0,161.63158,74"><g transform="translate(-159.61842,-143.39975)"><g data-paper-data="{&quot;isPaintingLayer&quot;:true}" fill-rule="nonzero" stroke-linejoin="miter" stroke-miterlimit="10" stroke-dasharray="" stroke-dashoffset="0" style="mix-blend-mode: normal"><path d="M165.54957,179.99942c0,-16.69114 13.89233,-30.28237 31.23286,-30.79575c0.33785,-0.01 86.11308,-0.00976 86.45873,0.00071c17.32954,0.525 31.20927,14.11148 31.20927,30.79504c0,16.74996 -13.99042,30.37813 -31.41633,30.80069c-0.27712,0.00672 -85.9843,0.00396 -86.35695,-0.00822c-17.29145,-0.56515 -31.12757,-14.13513 -31.12757,-30.79247z" fill="#9966ff" stroke="#000000" stroke-width="5" stroke-linecap="butt"/><path d="M199.48846,162.38313v29.5c0,0 -0.5538,4.085 -2.54849,6.15116c-1.57575,1.63222 -4.48784,1.34884 -5.70151,1.34884c-1.15988,0 -3.85547,-0.52025 -5.37476,-2.06318c-2.08285,-2.11527 -2.87524,-5.43682 -2.87524,-5.43682" fill="none" stroke="#000000" stroke-width="5" stroke-linecap="round"/><path d="M226.68704,161.96008c0,0 1.3351,30.78592 -0.25021,36.24014c-1.49177,5.13241 -16.94515,4.35085 -18.75525,-1.49262c-1.75403,-5.66246 0.28453,-35.21264 0.28453,-35.21264" fill="none" stroke="#000000" stroke-width="5" stroke-linecap="round"/><g fill="none" stroke="#000000" stroke-width="5"><path d="M254.7103,169.57635c0,6.96778 -4.32097,12.61628 -9.65116,12.61628c-5.33019,0 -9.65117,-5.6485 -9.65117,-12.61628c0,-6.96778 4.32098,-12.61628 9.65117,-12.61628c5.33019,0 9.65116,5.6485 9.65116,12.61628z" stroke-linecap="butt"/><path d="M255.05913,157.54148v39.30232" stroke-linecap="round"/><path d="M255.05913,196.72752c0,0 -0.88816,3.29367 -3.01269,4.6675c-1.69187,1.09405 -10.5565,0.93386 -12.41244,-0.41998c-1.54198,-1.12481 -1.90045,-4.24751 -1.90045,-4.24751" stroke-linecap="round"/></g><path d="M265.29169,179.92519c0,-6.96778 3.54007,-12.61628 7.90698,-12.61628c4.3669,0 7.90698,5.6485 7.90698,12.61628c0,6.96778 -3.54007,12.61628 -7.90698,12.61628c-4.3669,0 -7.90698,-5.6485 -7.90698,-12.61628z" fill="none" stroke="#000000" stroke-width="5" stroke-linecap="butt"/><path d="M281.45448,198.47171v-31.97674" fill="none" stroke="#000000" stroke-width="5" stroke-linecap="round"/><path d="M290.05913,196.8438v-29.18605" fill="none" stroke="#000000" stroke-width="5" stroke-linecap="round"/><path d="M291.22193,173.00659c0,0 5.13972,-4.18605 7.2093,-4.18605c1.36516,0 4.14633,-0.32698 5.83086,0.66908c1.84764,1.0925 2.54123,3.51697 2.54123,3.51697" fill="none" stroke="#000000" stroke-width="5" stroke-linecap="round"/><path d="M159.61842,217.39975v-74h161.63158v74z" fill="none" stroke="none" stroke-width="0" stroke-linecap="butt"/></g></g></svg>