<svg version="1.1" xmlns="http://www.w3.org/2000/svg" xmlns:xlink="http://www.w3.org/1999/xlink" width="550.54547" height="425" viewBox="0,0,550.54547,425"><g transform="translate(36.04546,21.5)"><g data-paper-data="{&quot;isPaintingLayer&quot;:true}" fill-rule="nonzero" stroke-linecap="butt" stroke-linejoin="miter" stroke-miterlimit="10" stroke-dasharray="" stroke-dashoffset="0" style="mix-blend-mode: normal"><path d="M150.07142,-12.00004c0,0 -1.00288,44.51456 -1.14781,55.96694c-0.03386,2.67577 -0.06266,4.95143 -0.06266,4.95143l-166.05976,-0.216l-0.01548,-60.70237z" data-paper-data="{&quot;index&quot;:null}" fill="#a5a5a5" stroke="none" stroke-width="0"/><path d="M480.50003,-21.5v197h-244v-197z" data-paper-data="{&quot;index&quot;:null}" fill="#a5a5a5" stroke="none" stroke-width="0"/><path d="M-36.04546,398.40909v-363h185v363z" fill="#a5a5a5" stroke="none" stroke-width="0"/><path d="M133.5,403.5v-67h357v67z" fill="#a5a5a5" stroke="none" stroke-width="0"/><path d="M438.50001,350.5v-198h76v198z" fill="#a5a5a5" stroke="none" stroke-width="0"/><path d="M236.82179,321.47526v-163.82349h34.67742v163.82349z" fill="#4d4d4d" stroke="#000000" stroke-width="2.5"/><g data-paper-data="{&quot;index&quot;:null}" stroke="#000000"><path d="M300.42896,327.61814c-4.6003,-0.79667 -7.44682,-4.17082 -6.35789,-7.53638c1.08895,-3.36556 5.70099,-5.44806 10.3013,-4.6514c4.6003,0.79666 7.44682,4.17082 6.35789,7.53638c-1.08893,3.36556 -5.70099,5.44806 -10.3013,4.6514z" fill="#9ad3ff" stroke-width="2.5"/><path d="M306.20651,325.2693l-8.28176,-0.60986l1.50997,-4.67181l-14.75616,-2.36353l1.27096,-4.9916l22.68102,3.09096l-1.27096,4.9916z" fill="#404040" stroke-width="2"/><path d="M294.58192,320.49398c1.04351,-3.22512 3.28107,-2.53645 6.29089,-2.01522c3.0098,0.52123 5.65213,0.67767 4.60862,3.90277c-1.04351,3.22512 -4.32936,5.41703 -7.33919,4.8958c-3.0098,-0.52123 -4.60384,-3.55824 -3.56033,-6.78334z" fill="#9ad3ff" stroke-width="2.5"/></g><path d="M321.20909,328.78752c-9.54406,0 -17.28105,-5.66035 -17.28105,-12.64274c0,-6.98239 7.73699,-12.64274 17.28105,-12.64274c9.54406,0 17.28105,5.66035 17.28105,12.64274c0,6.98239 -7.73699,12.64274 -17.28105,12.64274z" data-paper-data="{&quot;index&quot;:null}" fill="#9ad3ff" stroke="#000000" stroke-width="2.5"/><path d="M321.29847,309.52024c1.00946,0 1.8278,2.44682 1.8278,5.46512c0,3.0183 -0.81833,5.46512 -1.8278,5.46512c-1.00946,0 -1.8278,-2.44682 -1.8278,-5.46512c0,-3.0183 0.81833,-5.46512 1.8278,-5.46512z" data-paper-data="{&quot;index&quot;:null}" fill="#000000" stroke="#000000" stroke-width="2.5"/><path d="M313.19258,309.7528c0.83391,0 1.50992,2.16049 1.50992,4.82558c0,2.6651 -0.67601,4.82558 -1.50992,4.82558c-0.83391,0 -1.50992,-2.16049 -1.50992,-4.82558c0,-2.6651 0.67601,-4.82558 1.50992,-4.82558z" data-paper-data="{&quot;index&quot;:null}" fill="#000000" stroke="#000000" stroke-width="2.5"/><path d="M321.77844,328.54933c-4.72742,0 -8.55977,-2.80372 -8.55977,-6.26229c0,-3.45856 3.83234,-6.26229 8.55977,-6.26229c4.72744,0 8.55977,2.80372 8.55977,6.26229c0,3.45857 -3.83234,6.26229 -8.55977,6.26229z" data-paper-data="{&quot;index&quot;:null}" fill="#9ad3ff" stroke="#000000" stroke-width="2.5"/></g></g></svg>