<svg version="1.1" xmlns="http://www.w3.org/2000/svg" xmlns:xlink="http://www.w3.org/1999/xlink" width="101.68546" height="83.36943" viewBox="0,0,101.68546,83.36943"><g transform="translate(-187.5757,-137.21106)"><g data-paper-data="{&quot;isPaintingLayer&quot;:true}" fill-rule="nonzero" stroke-linecap="butt" stroke-linejoin="miter" stroke-miterlimit="10" stroke-dasharray="" stroke-dashoffset="0" style="mix-blend-mode: normal"><path d="M250.75723,198.53457c0,-7.70292 6.24444,-13.94737 13.94736,-13.94737c7.70292,0 13.94737,6.24445 13.94737,13.94737c0,7.70292 -6.24445,13.94736 -13.94737,13.94736c-7.70292,0 -13.94736,-6.24444 -13.94736,-13.94736z" fill="#9ad3ff" stroke="#000000" stroke-width="5"/><path d="M214.72136,178.60037c0,-15.55117 12.60672,-28.15789 28.15789,-28.15789c15.55118,0 28.15789,12.60672 28.15789,28.15789c0,15.55118 -12.60672,28.15789 -28.15789,28.15789c-15.55117,0 -28.15789,-12.60672 -28.15789,-28.15789z" fill="#9ad3ff" stroke="#000000" stroke-width="5"/><path d="M245.59041,178.26799c0.72004,4.44757 0.257,8.22251 -1.03424,8.43156c-1.29123,0.20904 -2.92169,-3.22697 -3.64173,-7.67454c-0.72004,-4.44757 -0.257,-8.2225 1.03423,-8.43154c1.29123,-0.20904 2.9217,3.22696 3.64174,7.67453z" fill="#000000" stroke="#000000" stroke-width="5"/><path d="M258.19326,175.4279c0.72004,4.44757 0.257,8.22251 -1.03424,8.43156c-1.29123,0.20904 -2.92169,-3.22697 -3.64173,-7.67454c-0.72004,-4.44757 -0.257,-8.2225 1.03423,-8.43154c1.29124,-0.20905 2.9217,3.22696 3.64174,7.67453z" fill="#000000" stroke="#000000" stroke-width="5"/><path d="M198.03535,169.66075c0,-7.70292 6.24444,-13.94737 13.94736,-13.94737c7.70292,0 13.94737,6.24445 13.94737,13.94737c0,7.70292 -6.24445,13.94736 -13.94737,13.94736c-7.70292,0 -13.94736,-6.24444 -13.94736,-13.94736z" fill="#9ad3ff" stroke="#000000" stroke-width="5"/><path d="M187.5757,220.5805v-83.36943h101.68546v83.36943z" fill="none" stroke="none" stroke-width="0"/></g></g></svg>