<svg version="1.1" xmlns="http://www.w3.org/2000/svg" xmlns:xlink="http://www.w3.org/1999/xlink" width="133.5" height="110" viewBox="0,0,133.5,110"><g transform="translate(-168.52777,-128.05556)"><g data-paper-data="{&quot;isPaintingLayer&quot;:true}" fill-rule="nonzero" stroke-linecap="butt" stroke-linejoin="miter" stroke-miterlimit="10" stroke-dasharray="" stroke-dashoffset="0" style="mix-blend-mode: normal"><path d="M300.27778,183.88889c0,8.43768 -7.46193,15.27777 -16.66667,15.27777c-9.20475,0 -16.66666,-6.84009 -16.66666,-15.27777c0,-8.43768 7.46192,-15.27778 16.66666,-15.27778c9.20475,0 16.66667,6.8401 16.66667,15.27778z" fill="#9966ff" stroke="#000000" stroke-width="3.5"/><path d="M197.83334,180c0,-23.28801 18.87865,-42.16666 42.16666,-42.16666c23.28801,0 42.16667,18.87865 42.16667,42.16666c0,23.28802 -18.87865,42.16666 -42.16667,42.16666c-23.28801,0 -42.16666,-18.87865 -42.16666,-42.16666z" fill="#9966ff" stroke="#000000" stroke-width="3.5"/><path d="M209.16666,183.33333c0,10.27864 -8.70557,18.61111 -19.44444,18.61111c-10.73887,0 -19.44445,-8.33247 -19.44445,-18.61111c0,-10.27864 8.70558,-18.61111 19.44445,-18.61111c10.73887,0 19.44444,8.33247 19.44444,18.61111z" fill="#9966ff" stroke="#000000" stroke-width="3.5"/><path d="M237.5,178.61111c0,7.67062 -4.47716,13.88889 -10,13.88889c-5.52284,0 -10,-6.21827 -10,-13.88889c0,-7.67062 4.47716,-13.88889 10,-13.88889c5.52284,0 10,6.21827 10,13.88889z" fill="#000000" stroke="#000000" stroke-width="3.5"/><path d="M261.94445,176.94444c0,4.9092 -3.35787,8.88888 -7.5,8.88888c-4.14213,0 -7.5,-3.97968 -7.5,-8.88888c0,-4.9092 3.35787,-8.88889 7.5,-8.88889c4.14213,0 7.5,3.97969 7.5,8.88889z" fill="#000000" stroke="#000000" stroke-width="3.5"/><path d="M175.27778,238.05556v-110h121.66667v110z" fill="none" stroke="none" stroke-width="0"/></g></g></svg>