<svg version="1.1" xmlns="http://www.w3.org/2000/svg" xmlns:xlink="http://www.w3.org/1999/xlink" width="550.54548" height="425.09804" viewBox="0,0,550.54548,425.09804"><g transform="translate(36.04546,21.5)"><g data-paper-data="{&quot;isPaintingLayer&quot;:true}" fill-rule="nonzero" stroke-linecap="butt" stroke-linejoin="miter" stroke-miterlimit="10" stroke-dasharray="" stroke-dashoffset="0" style="mix-blend-mode: normal"><path d="M150.07142,-12.00004c0,0 -1.00288,44.51456 -1.14781,55.96694c-0.03386,2.67577 -0.06266,4.95143 -0.06266,4.95143l-166.05976,-0.216l-0.01548,-60.70237z" data-paper-data="{&quot;index&quot;:null}" fill="#a5a5a5" stroke="none" stroke-width="0"/><path d="M480.50018,-21.5v197h-244v-197z" data-paper-data="{&quot;index&quot;:null}" fill="#a5a5a5" stroke="none" stroke-width="0"/><path d="M-36.04546,398.40909v-363h185v363z" fill="#a5a5a5" stroke="none" stroke-width="0"/><path d="M132.81374,403.59804v-67h357v67z" fill="#a5a5a5" stroke="none" stroke-width="0"/><path d="M438.50003,350.5v-198h76v198z" fill="#a5a5a5" stroke="none" stroke-width="0"/><path d="M236.82187,335.41465v-177.76288h34.67742v177.76288z" fill="#4d4d4d" stroke="#000000" stroke-width="2.5"/><g data-paper-data="{&quot;index&quot;:null}" stroke="#000000"><path d="M359.22709,320.7598c0.34456,-3.46206 3.41345,-5.98673 6.85455,-5.63901c3.44111,0.34774 5.95138,3.4362 5.60683,6.89823c-0.34454,3.46206 -3.41345,5.98673 -6.85455,5.63901c-3.4411,-0.34772 -5.95138,-3.4362 -5.60683,-6.89823z" fill="#9ad3ff" stroke-width="2.5"/><path d="M362.11408,324.66325l-0.19676,-6.1232l4.77653,0.48151l0.91501,-11.07961l5.07037,0.26471l-0.86932,16.95802l-5.07037,-0.26471z" fill="#404040" stroke-width="2"/><path d="M365.72251,315.54827c3.29752,0.33323 2.83142,2.05712 2.606,4.32228c-0.22543,2.26509 -0.12486,4.21364 -3.42236,3.88042c-3.29752,-0.33323 -5.78793,-2.43961 -5.56249,-4.70469c0.22543,-2.26509 3.08134,-3.83122 6.37883,-3.49798z" fill="#9ad3ff" stroke-width="2.5"/></g><path d="M356.60462,323.71012c-0.92335,-6.96321 3.93837,-13.35936 10.85895,-14.28619c6.92058,-0.92683 13.27933,3.96663 14.20269,10.92984c0.92335,6.96321 -3.93837,13.35936 -10.85895,14.28619c-6.92058,0.92683 -13.27933,-3.96663 -14.20269,-10.92984z" data-paper-data="{&quot;index&quot;:null}" fill="#9ad3ff" stroke="#000000" stroke-width="2.5"/><path d="M375.70997,321.21784c0.09766,0.73649 -2.24832,1.65833 -5.2399,2.05896c-2.99158,0.40064 -5.49591,0.12839 -5.59358,-0.6081c-0.09766,-0.73649 2.24832,-1.65833 5.2399,-2.05896c2.99158,-0.40064 5.49591,-0.12839 5.59358,0.6081z" data-paper-data="{&quot;index&quot;:null}" fill="#000000" stroke="#000000" stroke-width="2.5"/><path d="M374.69526,315.33478c0.08067,0.60841 -1.99528,1.38842 -4.63678,1.74217c-2.6415,0.35375 -4.84827,0.14734 -4.92894,-0.4611c-0.08067,-0.60841 1.99528,-1.38842 4.63678,-1.74217c2.6415,-0.35375 4.84827,-0.14734 4.92894,0.4611z" data-paper-data="{&quot;index&quot;:null}" fill="#000000" stroke="#000000" stroke-width="2.5"/><path d="M356.89578,324.09389c-0.45737,-3.44906 1.95078,-6.61724 5.37872,-7.07633c3.42794,-0.45908 6.57762,1.96477 7.03497,5.41383c0.45736,3.4491 -1.95078,6.61724 -5.37872,7.07633c-3.42796,0.45908 -6.57762,-1.96477 -7.03497,-5.41383z" data-paper-data="{&quot;index&quot;:null}" fill="#9ad3ff" stroke="#000000" stroke-width="2.5"/></g></g></svg>