<svg version="1.1" xmlns="http://www.w3.org/2000/svg" xmlns:xlink="http://www.w3.org/1999/xlink" width="550.5455" height="425.09804" viewBox="0,0,550.5455,425.09804"><g transform="translate(36.04545,21.5)"><g data-paper-data="{&quot;isPaintingLayer&quot;:true}" fill-rule="nonzero" stroke-linecap="butt" stroke-linejoin="miter" stroke-miterlimit="10" stroke-dasharray="" stroke-dashoffset="0" style="mix-blend-mode: normal"><path d="M150.07143,-12.00004c0,0 -1.00288,44.51456 -1.14781,55.96694c-0.03386,2.67577 -0.06266,4.95143 -0.06266,4.95143l-166.05976,-0.216l-0.01548,-60.70237z" data-paper-data="{&quot;index&quot;:null}" fill="#a5a5a5" stroke="none" stroke-width="0"/><path d="M480.5002,-21.5v197h-244v-197z" data-paper-data="{&quot;index&quot;:null}" fill="#a5a5a5" stroke="none" stroke-width="0"/><path d="M-36.04545,398.40909v-363h185v363z" fill="#a5a5a5" stroke="none" stroke-width="0"/><path d="M132.81375,403.59804v-67h357v67z" fill="#a5a5a5" stroke="none" stroke-width="0"/><path d="M438.50005,350.5v-198h76v198z" fill="#a5a5a5" stroke="none" stroke-width="0"/><path d="M236.82188,335.41465v-177.76288h34.67742v177.76288z" fill="#4d4d4d" stroke="#000000" stroke-width="2.5"/><g data-paper-data="{&quot;index&quot;:null}" stroke="#000000"><path d="M359.3168,319.89316c0.64683,-3.41851 3.9253,-5.66433 7.32265,-5.01619c3.39736,0.64816 5.62712,3.94486 4.9803,7.36334c-0.64681,3.41851 -3.9253,5.66433 -7.32265,5.01619c-3.39735,-0.64814 -5.62712,-3.94486 -4.9803,-7.36334z" fill="#9ad3ff" stroke-width="2.5"/><path d="M361.85036,324.03475l0.34096,-6.11686l4.7159,0.89853l1.8831,-10.95669l5.02762,0.70833l-2.35308,16.81646l-5.02762,-0.70833z" fill="#404040" stroke-width="2"/><path d="M366.24421,315.27132c3.25559,0.62112 2.64012,2.29749 2.21692,4.53416c-0.4232,2.23659 -0.49389,4.18646 -3.74946,3.56535c-3.25559,-0.62112 -5.55169,-2.93778 -5.12849,-5.17436c0.4232,-2.23659 3.40544,-3.54625 6.66101,-2.92512z" fill="#9ad3ff" stroke-width="2.5"/></g><path d="M356.4457,322.60214c-0.30916,-7.01736 5.09473,-12.96252 12.06992,-13.27889c6.9752,-0.31637 12.88032,5.11586 13.1895,12.13322c0.30916,7.01736 -5.09473,12.96252 -12.06992,13.27889c-6.9752,0.31637 -12.88032,-5.11586 -13.1895,-12.13322z" data-paper-data="{&quot;index&quot;:null}" fill="#9ad3ff" stroke="#000000" stroke-width="2.5"/><path d="M373.04182,321.98007c0.01958,0.74222 -1.4278,1.45478 -3.23281,1.59152c-1.80501,0.13675 -3.28413,-0.35406 -3.30371,-1.09628c-0.01958,-0.74222 1.4278,-1.45478 3.23281,-1.59152c1.80501,-0.13675 3.28413,0.35406 3.30371,1.09628z" data-paper-data="{&quot;index&quot;:null}" fill="#000000" stroke="#000000" stroke-width="2.5"/><path d="M373.16412,315.96896c0.0213,0.61314 -1.6637,1.2081 -3.76356,1.32884c-2.09987,0.12074 -3.81942,-0.27839 -3.84072,-0.89156c-0.0213,-0.61314 1.6637,-1.2081 3.76356,-1.32884c2.09987,-0.12074 3.81942,0.27839 3.84072,0.89156z" data-paper-data="{&quot;index&quot;:null}" fill="#000000" stroke="#000000" stroke-width="2.5"/><path d="M356.70209,323.00997c-0.15315,-3.47588 2.52355,-6.42068 5.97855,-6.57739c3.45499,-0.1567 6.37998,2.53402 6.53311,6.0099c0.15313,3.47592 -2.52355,6.42068 -5.97855,6.57739c-3.45501,0.1567 -6.37998,-2.53402 -6.53311,-6.0099z" data-paper-data="{&quot;index&quot;:null}" fill="#9ad3ff" stroke="#000000" stroke-width="2.5"/></g></g></svg>