<svg version="1.1" xmlns="http://www.w3.org/2000/svg" xmlns:xlink="http://www.w3.org/1999/xlink" width="97.01871" height="72.87924" viewBox="0,0,97.01871,72.87924"><g transform="translate(-201.02619,-143.14631)"><g data-paper-data="{&quot;isPaintingLayer&quot;:true}" fill-rule="nonzero" stroke-linecap="butt" stroke-linejoin="miter" stroke-miterlimit="10" stroke-dasharray="" stroke-dashoffset="0" style="mix-blend-mode: normal"><g stroke="#000000"><path d="M261.65969,197.57087c-5.41505,-5.47834 -5.36374,-14.30917 0.1146,-19.72422c5.47834,-5.41505 14.30917,-5.36374 19.72422,0.1146c5.41505,5.47834 5.36373,14.30917 -0.11461,19.72422c-5.47834,5.41505 -14.30917,5.36374 -19.72422,-0.1146z" fill="#9ad3ff" stroke-width="5"/><path d="M263.74104,190.43065l-7.55243,-8.41685l27.97972,-25.10619l7.55242,8.41685l-17.79495,17.00456l7.51448,7.60599l-10.81764,8.18055z" fill="#404040" stroke-width="4"/><path d="M284.17105,195.09873c-3.58428,3.54287 -10.69648,2.15921 -15.88554,-3.0905c-5.18906,-5.24971 -1.69345,-7.78716 1.89083,-11.33003c3.58429,-3.54288 5.89996,-6.74956 11.08902,-1.49985c5.18905,5.24971 6.48997,12.37751 2.90569,15.92038z" fill="#9ad3ff" stroke-width="5"/></g><path d="M214.72136,178.60037c0,-15.55117 12.60672,-28.15789 28.15789,-28.15789c15.55118,0 28.15789,12.60672 28.15789,28.15789c0,15.55118 -12.60672,28.15789 -28.15789,28.15789c-15.55117,0 -28.15789,-12.60672 -28.15789,-28.15789z" fill="#9ad3ff" stroke="#000000" stroke-width="5"/><path d="M207.97343,161.24099c0,-7.70292 6.24444,-13.94737 13.94736,-13.94737c7.70292,0 13.94737,6.24445 13.94737,13.94737c0,7.70292 -6.24445,13.94736 -13.94737,13.94736c-7.70292,0 -13.94736,-6.24444 -13.94736,-13.94736z" fill="#9ad3ff" stroke="#000000" stroke-width="5"/><path d="M201.02619,216.02555v-72.87924h97.01871v72.87924z" fill="none" stroke="none" stroke-width="0"/><path d="M246.46698,165.19468c0,4.50548 -1.06038,8.1579 -2.36843,8.1579c-1.30804,0 -2.36842,-3.65242 -2.36842,-8.1579c0,-2.15079 1.28823,-8.69857 1.28823,-8.69857l2.73933,4.78071c0,0 0.70929,-0.58761 0.70929,3.91787z" fill="#000000" stroke="#000000" stroke-width="5"/><path d="M259.17737,164.40522c0,4.50548 -1.06038,8.1579 -2.36843,8.1579c-1.30804,0 -2.36842,-3.65242 -2.36842,-8.1579c0,-4.50548 0.89363,-4.10222 0.89363,-4.10222l3.13512,-3.95265c0,0 0.7081,6.26019 0.7081,8.05486z" fill="#000000" stroke="#000000" stroke-width="5"/></g></g></svg>