<svg version="1.1" xmlns="http://www.w3.org/2000/svg" xmlns:xlink="http://www.w3.org/1999/xlink" width="82.37294" height="75.28634" viewBox="0,0,82.37294,75.28634"><g transform="translate(-197.60578,-143.14631)"><g data-paper-data="{&quot;isPaintingLayer&quot;:true}" fill-rule="nonzero" stroke-linecap="butt" stroke-linejoin="miter" stroke-miterlimit="10" stroke-dasharray="" stroke-dashoffset="0" style="mix-blend-mode: normal"><path d="M241.37127,201.98529c0,-7.70292 6.24444,-13.94737 13.94736,-13.94737c7.70292,0 13.94737,6.24445 13.94737,13.94737c0,7.70292 -6.24445,13.94736 -13.94737,13.94736c-7.70292,0 -13.94736,-6.24444 -13.94736,-13.94736z" fill="#9ad3ff" stroke="#000000" stroke-width="5"/><path d="M214.53702,178.60037c0,-15.55117 12.60672,-28.15789 28.15789,-28.15789c15.55118,0 28.15789,12.60672 28.15789,28.15789c0,15.55118 -12.60672,28.15789 -28.15789,28.15789c-15.55117,0 -28.15789,-12.60672 -28.15789,-28.15789z" fill="#9ad3ff" stroke="#000000" stroke-width="5"/><path d="M245.06081,194.4607c0,4.50548 -1.06038,8.1579 -2.36843,8.1579c-1.30804,0 -2.36842,-3.65242 -2.36842,-8.1579c0,-4.50548 1.06038,-8.15789 2.36842,-8.15789c1.30804,0 2.36843,3.65241 2.36843,8.15789z" fill="#000000" stroke="#000000" stroke-width="5"/><path d="M257.95556,193.67123c0,4.50548 -1.06038,8.1579 -2.36843,8.1579c-1.30804,0 -2.36842,-3.65242 -2.36842,-8.1579c0,-4.50548 1.06038,-8.15789 2.36842,-8.15789c1.30805,0 2.36843,3.65241 2.36843,8.15789z" fill="#000000" stroke="#000000" stroke-width="5"/><path d="M200.10579,200.9933c0,-7.70292 6.24444,-13.94737 13.94736,-13.94737c7.70292,0 13.94737,6.24445 13.94737,13.94737c0,7.70292 -6.24445,13.94736 -13.94737,13.94736c-7.70292,0 -13.94736,-6.24444 -13.94736,-13.94736z" fill="#9ad3ff" stroke="#000000" stroke-width="5"/><path d="M201.0262,216.02555v-72.87924h78.95252v72.87924z" fill="none" stroke="none" stroke-width="0"/></g></g></svg>