<svg version="1.1" xmlns="http://www.w3.org/2000/svg" xmlns:xlink="http://www.w3.org/1999/xlink" width="550.54547" height="425" viewBox="0,0,550.54547,425"><g transform="translate(36.04546,21.5)"><g data-paper-data="{&quot;isPaintingLayer&quot;:true}" fill-rule="nonzero" stroke-linecap="butt" stroke-linejoin="miter" stroke-miterlimit="10" stroke-dasharray="" stroke-dashoffset="0" style="mix-blend-mode: normal"><path d="M150.07142,-12.00004c0,0 -1.00288,44.51456 -1.14781,55.96694c-0.03386,2.67577 -0.06266,4.95143 -0.06266,4.95143l-166.05976,-0.216l-0.01548,-60.70237z" data-paper-data="{&quot;index&quot;:null}" fill="#a5a5a5" stroke="none" stroke-width="0"/><path d="M480.50007,-21.5v197h-244v-197z" data-paper-data="{&quot;index&quot;:null}" fill="#a5a5a5" stroke="none" stroke-width="0"/><path d="M-36.04546,398.40909v-363h185v363z" fill="#a5a5a5" stroke="none" stroke-width="0"/><path d="M133.5,403.5v-67h357v67z" fill="#a5a5a5" stroke="none" stroke-width="0"/><path d="M438.50001,350.5v-198h76v198z" fill="#a5a5a5" stroke="none" stroke-width="0"/><path d="M236.82183,335.41465v-177.76288h34.67742v177.76288z" fill="#4d4d4d" stroke="#000000" stroke-width="2.5"/><g data-paper-data="{&quot;index&quot;:null}" stroke="#000000"><path d="M277.95656,323.98177c-1.84249,-0.79667 -2.98257,-4.17082 -2.54644,-7.53638c0.43614,-3.36556 2.28334,-5.44806 4.12583,-4.6514c1.84249,0.79666 2.98257,4.17082 2.54644,7.53638c-0.43613,3.36556 -2.28334,5.44806 -4.12583,4.6514z" fill="#9ad3ff" stroke-width="2.5"/><path d="M280.27057,321.63293l-3.31698,-0.60986l0.60476,-4.67181l-5.91008,-2.36353l0.50904,-4.9916l9.08411,3.09096l-0.50904,4.9916z" fill="#404040" stroke-width="2"/><path d="M275.61473,316.85761c0.41794,-3.22512 1.31412,-2.53645 2.51961,-2.01522c1.20547,0.52123 2.26376,0.67767 1.84582,3.90277c-0.41794,3.22512 -1.73398,5.41703 -2.93946,4.8958c-1.20547,-0.52123 -1.84392,-3.55824 -1.42597,-6.78334z" fill="#9ad3ff" stroke-width="2.5"/></g><path d="M279.35848,326.96933c-3.82255,0 -6.92134,-5.66035 -6.92134,-12.64274c0,-6.98239 3.09879,-12.64274 6.92134,-12.64274c3.82255,0 6.92134,5.66035 6.92134,12.64274c0,6.98239 -3.09879,12.64274 -6.92134,12.64274z" data-paper-data="{&quot;index&quot;:null}" fill="#9ad3ff" stroke="#000000" stroke-width="2.5"/><path d="M279.39427,307.70205c0.40431,0 0.73207,2.44682 0.73207,5.46512c0,3.0183 -0.32775,5.46512 -0.73207,5.46512c-0.40431,0 -0.73207,-2.44682 -0.73207,-5.46512c0,-3.0183 0.32775,-5.46512 0.73207,-5.46512z" data-paper-data="{&quot;index&quot;:null}" fill="#000000" stroke="#000000" stroke-width="2.5"/><path d="M276.14773,307.93461c0.33399,0 0.60475,2.16049 0.60475,4.82558c0,2.6651 -0.27075,4.82558 -0.60475,4.82558c-0.33399,0 -0.60475,-2.16049 -0.60475,-4.82558c0,-2.6651 0.27075,-4.82558 0.60475,-4.82558z" data-paper-data="{&quot;index&quot;:null}" fill="#000000" stroke="#000000" stroke-width="2.5"/><path d="M279.58651,326.73114c-1.89341,0 -3.42832,-2.80372 -3.42832,-6.26229c0,-3.45856 1.53491,-6.26229 3.42832,-6.26229c1.89342,0 3.42832,2.80372 3.42832,6.26229c0,3.45857 -1.53491,6.26229 -3.42832,6.26229z" data-paper-data="{&quot;index&quot;:null}" fill="#9ad3ff" stroke="#000000" stroke-width="2.5"/></g></g></svg>